<?xml version="1.0" encoding="UTF-8" standalone="no"?>
<svg
   viewBox="0 0 687.49576 869.29142"
   width="687.49579"
   height="869.29138"
   version="1.1"
   id="svg159"
   sodipodi:docname="LED Cube 8x8x8 Back Panel PixelBlaze.svg"
   inkscape:version="1.4 (e7c3feb1, 2024-10-09)"
   xmlns:inkscape="http://www.inkscape.org/namespaces/inkscape"
   xmlns:sodipodi="http://sodipodi.sourceforge.net/DTD/sodipodi-0.dtd"
   xmlns="http://www.w3.org/2000/svg"
   xmlns:svg="http://www.w3.org/2000/svg">
  <sodipodi:namedview
     id="namedview159"
     pagecolor="#ffffff"
     bordercolor="#000000"
     borderopacity="0.25"
     inkscape:showpageshadow="2"
     inkscape:pageopacity="0.0"
     inkscape:pagecheckerboard="0"
     inkscape:deskcolor="#d1d1d1"
     inkscape:zoom="1.311413"
     inkscape:cx="343.5226"
     inkscape:cy="434.64568"
     inkscape:window-width="2560"
     inkscape:window-height="1387"
     inkscape:window-x="0"
     inkscape:window-y="25"
     inkscape:window-maximized="0"
     inkscape:current-layer="g159" />
  <desc
     id="desc1">LED Cube 8x8x8 Back Panel PixelBlaze.dxf - scale = 25.400000, origin = (0.000000, 0.000000), method = file</desc>
  <defs
     id="defs4">
    <marker
       id="DistanceX"
       orient="auto"
       refX="0"
       refY="0"
       style="overflow:visible">
      <path
         d="M 3,-3 -3,3 M 0,-5 V 5"
         style="stroke:#000000;stroke-width:0.5"
         id="path1" />
    </marker>
    <pattern
       id="Hatch"
       patternUnits="userSpaceOnUse"
       width="8"
       height="8"
       x="0"
       y="0">
      <path
         d="M8 4 l-4,4"
         stroke="#000000"
         stroke-width="0.25"
         linecap="square"
         id="path2" />
      <path
         d="M6 2 l-4,4"
         stroke="#000000"
         stroke-width="0.25"
         linecap="square"
         id="path3" />
      <path
         d="M4 0 l-4,4"
         stroke="#000000"
         stroke-width="0.25"
         linecap="square"
         id="path4" />
    </pattern>
    <symbol
       id="*MODEL_SPACE" />
    <symbol
       id="*PAPER_SPACE" />
  </defs>
  <g
     inkscape:groupmode="layer"
     inkscape:label="Outer Cuts"
     id="g159"
     transform="translate(527.99,17626.3)"
     style="display:inline">
    <path
       id="path159"
       style="fill:none;stroke:#000000;stroke-width:1;stroke-dasharray:none;vector-effect:non-scaling-stroke;-inkscape-stroke:hairline"
       d="m -507.20411,-17061.26 c 0.73703,0.737 0.73853,1.933 0.001,2.671 m -5e-5,-51.807 c -0.73708,0.739 -1.93327,0.739 -2.67082,0 m -0.002,0 v 0 m 0,0 h -0.55336 m 0.55336,0 h -1.10672 m 3.77971,-264.567 c -0.73745,0.738 -1.93443,0.738 -2.67188,0 -3.7e-4,0 -7.3e-4,0 -0.001,0 m 2.67299,-216.188 10e-6,-35.15 m -10e-6,35.15 h 20.00415 m 2.67301,0 c 0.73745,0.739 0.73856,1.935 -4e-5,2.673 m -2.67296,-2.673 c 0.73858,-0.737 1.93555,-0.737 2.673,0 m -4e-5,2.673 v 5.992 m 2e-5,2.674 c -0.73745,0.738 -1.93442,0.738 -2.67188,0 m 2.67188,-2.673 c 0.73856,0.738 0.73745,1.935 0,2.673 m -2.67187,0 h -20.00529 m 10e-6,202.178 -10e-6,-202.178 m 10e-6,202.178 c 0.73856,0.739 0.73745,1.935 0,2.673 m -4.88643,0 h 2.21343 m -4.88531,0 c -0.73856,-0.738 -0.73856,-1.934 2e-5,-2.673 m 2.67185,2.673 c -0.73745,0.738 -1.93442,0.738 -2.67187,0 m -10e-4,-3.78 10e-4,1.107 m -2.33414,-4.598 c 1.41288,0.584 2.33303,1.963 2.33303,3.492 m -6.45216,-2.673 c 1.08185,-1.081 2.70734,-1.404 4.11913,-0.819 m -10.8946,7.598 6.77547,-6.78 m -6.77547,48.028 v -41.248 m 7.55941,48.808 -7.55941,-7.56 m 18.11403,7.559 h -10.55462 m 13.22649,0 c 0.73743,0.737 0.73854,1.934 0.001,2.672 m -2.67298,-2.673 c 0.73743,-0.738 1.93441,-0.738 2.67187,0 m 0.001,212.758 -1e-5,-210.086 m 1e-5,210.087 c 0.73856,0.737 0.73746,1.934 0,2.671 m -4.88643,0 h 2.21561 m -4.88749,0 c -0.73857,-0.738 -0.73857,-1.935 -10e-4,-2.672 m 2.67303,2.672 c -0.73746,0.738 -1.93444,0.738 -2.67187,0 m -0.002,-3.779 10e-4,1.107 m -2.33412,-4.6 c 1.4129,0.586 2.33305,1.963 2.33305,3.492 m -6.45101,-2.673 c 1.0807,-1.08 2.70619,-1.404 4.11796,-0.819 m -10.89344,7.597 6.77547,-6.778 m -6.77547,48.028 v -41.25 m 7.55941,48.809 -7.55941,-7.559 m 18.11401,7.559 h -10.5546 m 10.5546,0 c 0.73743,-0.738 1.93441,-0.737 2.67188,0 m 0.001,161.764 -1e-5,-159.093 m 1e-5,159.093 h 20.00406 m 2.6719,0 c 0.73743,0.739 0.73853,1.935 0.001,2.673 m -2.67305,-2.673 c 0.73746,-0.737 1.93441,-0.737 2.67188,0 m 10e-4,2.673 v 5.992 m 0,2.673 c -0.73746,0.738 -1.93441,0.738 -2.67191,0 m 2.67191,-2.673 c 0.73857,0.737 0.73747,1.934 0,2.672 m -2.67193,0 h -20.00527 m -2e-5,39.657 2e-5,-39.657 m -2e-5,42.329 c -0.73744,0.738 -1.93442,0.738 -2.67297,0 m 2.67297,-2.672 c 0.73856,0.739 0.73746,1.934 0,2.672 m -4.8864,0 h 2.21343 m -4.88532,0 c -0.73857,-0.738 -0.73857,-1.933 -10e-4,-2.672 m 2.67299,2.672 c -0.73746,0.737 -1.93445,0.737 -2.67188,0 m -0.002,-3.779 0.001,1.107 m -2.33416,-4.599 c 1.4129,0.585 2.33306,1.964 2.33306,3.492 m -6.45106,-2.672 c 1.08074,-1.082 2.70624,-1.405 4.118,-0.82 m -10.89123,7.596 6.77322,-6.776 m -6.77318,48.026 -4e-5,-41.25 m 7.55941,48.809 -7.55937,-7.559 m 18.114,7.559 h -10.55463 m 13.22651,0 c 0.73746,0.739 0.73856,1.935 10e-4,2.673 m -2.67301,-2.673 c 0.73746,-0.737 1.93442,-0.737 2.67188,0 m 10e-4,39.685 v -37.012 m 666.70643,21.894 -15.11811,15.119 m 15.11811,-127.371 v 112.252 m -3.77952,-116.031 3.77952,3.779 m -3.77952,-3.779 h -38.90158 m -2.67272,0 c -0.73744,-0.738 -0.73744,-1.935 0,-2.672 m 2.67296,2.672 c -0.73851,0.738 -1.93437,0.738 -2.67296,0 m -3.9e-4,-2.672 v -5.994 m 3.9e-4,-2.673 c 0.73855,-0.737 1.93441,-0.737 2.67303,0 m -2.67303,2.673 c -0.7374,-0.739 -0.7374,-1.934 0,-2.673 m 2.6728,0 h 38.90157 m 3.77953,-3.78 -3.77953,3.78 m 3.77953,-676.535 v 672.755 m -3.77953,-676.535 3.77953,3.78 m -3.77953,-3.78 h -38.90157 m -3.22756,-1.335 c 0,-0.501 0.19933,-0.982 0.55366,-1.336 m 0,2.672 c -0.35433,-0.355 -0.55366,-0.835 -0.55366,-1.336 m 1.89016,1.889 c -0.50162,0 -0.98217,-0.198 -1.3365,-0.553 m 2.67295,0 c -0.35429,0.354 -0.83484,0.553 -1.33645,0.553 m -1.33583,-3.227 v -5.992 m 1.33583,-3.226 c 0.50157,0 0.9822,0.199 1.33641,0.553 m -2.67291,0 c 0.35433,-0.354 0.83488,-0.553 1.3365,-0.553 m -1.89016,1.89 c 0,-0.502 0.19933,-0.982 0.55366,-1.337 m 0,2.673 c -0.35433,-0.354 -0.55366,-0.835 -0.55366,-1.336 m 3.22756,-1.337 h 38.90157 m 3.77953,-3.78 -3.77953,3.78 m 3.77953,-20.032 v 16.252 m -15.11811,-31.37 15.11811,15.118 m -666.70873,-15.118 h 651.59054 m -608.73427,869.291 7.54449,-7.573 m -7.54449,7.574 7.54449,-7.574 m 565.87825,7.573 -7.54453,-7.573 z m -616.27679,0 h 42.85405 m 7.54449,-7.573 h 558.33545 m 7.54331,7.574 h 35.31102" />
  </g>
  <g
     inkscape:groupmode="layer"
     id="layer3"
     inkscape:label="Inner Cuts"
     style="display:inline"
     transform="translate(-0.49999946,-0.4999789)">
    <path
       id="path103"
       style="vector-effect:non-scaling-stroke;fill:none;stroke:#000000;stroke-width:0.0393701;stroke-dasharray:none;-inkscape-stroke:hairline"
       d="m 348.88784,772.15857 c 5.76789,-3.34482 9.31391,-9.51409 9.30113,-16.18146 m -27.96539,16.21773 c 5.78066,3.32259 12.89456,3.30893 18.66426,-0.0363 m -28.02745,-16.10939 c 0.0126,6.66741 3.5807,12.82307 9.36319,16.14566 m -0.0621,-32.32708 c -5.7697,3.34478 -9.31391,9.51225 -9.30113,16.18142 m 27.9654,-16.21768 c -5.78249,-3.32448 -12.89643,-3.31073 -18.66427,0.0363 m 28.02745,16.10935 c -0.0126,-6.66921 -3.58252,-12.82307 -9.36318,-16.14561" />
    <path
       id="path111"
       style="vector-effect:non-scaling-stroke;fill:none;stroke:#000000;stroke-width:0.0393701;stroke-dasharray:none;-inkscape-stroke:hairline"
       d="m 279.69106,766.53232 c -0.004,-2.0876 -1.6992,-3.7763 -3.7868,-3.77233 m 3.83039,26.44937 -0.0437,-22.67717 m -3.72861,26.4641 c 2.08757,-0.004 3.77627,-1.69913 3.77226,-3.78682 m -49.12632,3.8739 45.35393,-0.087 m -49.1409,-3.68531 c 0.004,2.0876 1.69919,3.77621 3.78679,3.77224 m -3.83014,-26.44953 0.0433,22.67716 m 3.72877,-26.46383 c -2.08758,0.004 -3.77627,1.69921 -3.77224,3.78681 m 49.12654,-3.87376 -45.35433,0.087" />
    <path
       id="path117"
       style="vector-effect:non-scaling-stroke;fill:none;stroke:#000000;stroke-width:0.0393701;stroke-dasharray:none;-inkscape-stroke:hairline"
       d="m 156.29131,795.31923 c 4.67344,-2.71082 7.54429,-7.70642 7.53389,-13.10857 m -22.65199,13.13763 c 4.68382,2.69125 10.44612,2.68018 15.1181,-0.0291 m -22.70225,-13.05044 c 0.0102,5.40206 2.90181,10.38669 7.58415,13.0795 m -0.0503,-26.1865 c -4.67195,2.71072 -7.54427,7.70641 -7.53388,13.107 m 22.65195,-13.13606 c -4.68231,-2.69125 -10.4446,-2.68027 -15.11807,0.0291 m 22.70226,13.04887 c -0.0102,-5.4005 -2.90036,-10.38521 -7.58419,-13.07793" />
    <path
       id="path129"
       style="vector-effect:non-scaling-stroke;fill:none;stroke:#000000;stroke-width:0.0393701;stroke-dasharray:none;-inkscape-stroke:hairline"
       d="m 670.20433,308.53189 h -2.2126 m -2.67397,0 c -0.73745,-0.73856 -0.73745,-1.93442 10e-4,-2.67302 m 2.67177,2.67302 c -0.73851,0.73745 -1.93437,0.73745 -2.67295,0 m 7.8e-4,-2.67299 v -51.34724 m -7.8e-4,-2.67382 c 0.73854,-0.73744 1.93437,-0.73744 2.67287,0 m -2.67287,2.67299 c -0.73748,-0.73854 -0.73748,-1.93441 0,-2.67299 m 2.67385,7.9e-4 h 2.2126 m 2.67292,3.9e-4 c 0.73744,0.7385 0.73744,1.93441 0,2.67189 m -2.67296,-2.67189 c 0.73859,-0.73748 1.93445,-0.73748 2.67296,0 m 0,2.67268 v 51.34724 m 0,2.67299 c -0.73859,0.73743 -1.93445,0.73743 -2.67296,0 m 2.67296,-2.67298 c 0.73744,0.73853 0.73744,1.93442 0,2.67298" />
    <path
       id="path141"
       style="vector-effect:non-scaling-stroke;fill:none;stroke:#000000;stroke-width:0.0393701;stroke-dasharray:none;-inkscape-stroke:hairline"
       d="m 670.20433,837.66457 h -2.2126 m -2.67397,0 c -0.73745,-0.73745 -0.73745,-1.93332 10e-4,-2.67178 m 2.67177,2.67178 c -0.73858,0.73745 -1.93445,0.73745 -2.67295,0 m 7.8e-4,-2.6719 v -51.34779 m -7.8e-4,-2.67206 c 0.73854,-0.73855 1.93441,-0.73855 2.67303,-10e-4 m -2.67303,2.67306 c -0.73741,-0.73745 -0.73741,-1.93442 0,-2.67188 m 2.67401,-10e-4 h 2.2126 m 2.67287,0 c 0.73745,0.73745 0.73745,1.93442 0,2.67298 m -2.67299,-2.67298 c 0.73855,-0.73856 1.93441,-0.73856 2.67299,0 m 0,2.67317 v 51.34803 m 0,2.67159 c -0.73858,0.73856 -1.93441,0.73856 -2.67295,0 m 2.67295,-2.67178 c 0.73745,0.73856 0.73745,1.93442 0,2.67178" />
    <path
       id="path153"
       style="vector-effect:non-scaling-stroke;fill:none;stroke:#000000;stroke-width:0.0393701;stroke-dasharray:none;-inkscape-stroke:hairline"
       d="m 670.20433,573.09724 -2.2126,10e-4 m -2.67386,0 c -0.7374,-0.73745 -0.7374,-1.93443 10e-4,-2.67188 m 2.67177,2.67188 c -0.73855,0.73855 -1.93441,0.73855 -2.67296,0 m 7.9e-4,-2.6719 V 519.0785 m -7.9e-4,-2.67296 c 0.73855,-0.73745 1.93441,-0.73745 2.67296,0 m -2.67296,2.67298 c -0.73748,-0.73856 -0.73748,-1.93442 0,-2.67298 m 2.67386,0 h 2.2126 m 2.67295,0 c 0.73744,0.73856 0.73744,1.93442 0,2.67294 m -2.67299,-2.67294 c 0.73858,-0.73745 1.93445,-0.73745 2.67299,0 m 0,2.67296 v 51.34685 m 0,2.67197 c -0.7385,0.73851 -1.93437,0.73851 -2.67295,0 m 2.67295,-2.67192 c 0.73744,0.7374 0.73744,1.93442 0,2.67192" />
  </g>
</svg>
