<?xml version="1.0" encoding="UTF-8" standalone="no"?>
<svg
   viewBox="0 0 644.02997 644.03183"
   width="170.3996mm"
   height="170.40009mm"
   version="1.1"
   id="svg269"
   sodipodi:docname="L3D Cube 8x8x8 Bottom Panel PixelBlaze.svg"
   inkscape:version="1.4 (e7c3feb1, 2024-10-09)"
   xmlns:inkscape="http://www.inkscape.org/namespaces/inkscape"
   xmlns:sodipodi="http://sodipodi.sourceforge.net/DTD/sodipodi-0.dtd"
   xmlns="http://www.w3.org/2000/svg"
   xmlns:svg="http://www.w3.org/2000/svg">
  <sodipodi:namedview
     id="namedview269"
     pagecolor="#ffffff"
     bordercolor="#666666"
     borderopacity="1.0"
     inkscape:showpageshadow="2"
     inkscape:pageopacity="0.0"
     inkscape:pagecheckerboard="0"
     inkscape:deskcolor="#d1d1d1"
     inkscape:zoom="0.94752291"
     inkscape:cx="355.13653"
     inkscape:cy="336.66732"
     inkscape:window-width="1280"
     inkscape:window-height="1387"
     inkscape:window-x="0"
     inkscape:window-y="25"
     inkscape:window-maximized="0"
     inkscape:current-layer="layer1"
     inkscape:document-units="mm" />
  <desc
     id="desc1">2mm.DXF - scale = 1.000000, origin = (0.000000, 0.000000), method = manual</desc>
  <defs
     id="defs10">
    <marker
       id="DistanceX"
       orient="auto"
       refX="0"
       refY="0"
       style="overflow:visible">
      <path
         d="M 3,-3 -3,3 M 0,-5 V 5"
         style="stroke:#000000;stroke-width:0.5"
         id="path1" />
    </marker>
    <pattern
       id="Hatch"
       patternUnits="userSpaceOnUse"
       width="8"
       height="8"
       x="0"
       y="0">
      <path
         d="M8 4 l-4,4"
         stroke="#000000"
         stroke-width="0.25"
         linecap="square"
         id="path2" />
      <path
         d="M6 2 l-4,4"
         stroke="#000000"
         stroke-width="0.25"
         linecap="square"
         id="path3" />
      <path
         d="M4 0 l-4,4"
         stroke="#000000"
         stroke-width="0.25"
         linecap="square"
         id="path4" />
    </pattern>
    <symbol
       id="$MODEL_SPACE" />
    <symbol
       id="$PAPER_SPACE" />
    <symbol
       id="*D1">
      <path
         style="fill:none;stroke:#000000;stroke-linecap:round"
         d="m 1578.61,-43.667 1.92,-12.48 h -3.84 z"
         id="path5" />
      <path
         style="fill:none;stroke:#000000;stroke-linecap:round"
         d="m 1578.61,-912.958 -1.92,12.48 h 3.84 z"
         id="path6" />
      <path
         style="fill:none;stroke:#000000;stroke-linecap:round"
         d="m 1524.83,-43.667 h 65.78"
         id="path7" />
      <path
         style="fill:none;stroke:#000000;stroke-linecap:round"
         d="m 1524.83,-912.958 h 65.78"
         id="path8" />
      <path
         style="fill:none;stroke:#000000;stroke-linecap:round"
         d="M 1578.61,-43.667 V -468.789"
         id="path9" />
      <path
         style="fill:none;stroke:#000000;stroke-linecap:round"
         d="m 1578.61,-912.958 v 425.121"
         id="path10" />
      <text
         x="1565.3165"
         y="-473.02802"
         style="font-size:12px;line-height:125%;font-family:Arial;text-anchor:start;fill:#000000"
         id="text10"><tspan
           sodipodi:role="line"
           dx="0"
           dy="0"
           id="tspan10"
           x="1565.3165"
           y="-473.02802">230</tspan></text>
    </symbol>
  </defs>
  <g
     inkscape:groupmode="layer"
     id="layer1"
     inkscape:label="Layer 1">
    <path
       d="m 22.4883,15.87436 a 6.6142,6.6142 0 0 0 -13.2284,0 6.6142,6.6142 0 0 0 13.2284,0 z"
       style="vector-effect:non-scaling-stroke;fill:none;stroke:#3f51b5;stroke-width:1.00000003;stroke-linecap:round;stroke-dasharray:none;-inkscape-stroke:hairline;stroke-opacity:1"
       id="path261" />
    <path
       d="m 634.7717,15.87436 a 6.614173,6.614173 0 0 0 -13.2283,0 6.614173,6.614173 0 0 0 13.2283,0 z"
       style="vector-effect:non-scaling-stroke;fill:none;stroke:#3f51b5;stroke-width:1.00000003;stroke-linecap:round;stroke-dasharray:none;-inkscape-stroke:hairline;stroke-opacity:1"
       id="path262" />
    <path
       d="m 634.7717,628.15783 a 6.614173,6.614173 0 0 0 -13.2283,0 6.614173,6.614173 0 0 0 13.2283,0 z"
       style="vector-effect:non-scaling-stroke;fill:none;stroke:#3f51b5;stroke-width:1.00000003;stroke-linecap:round;stroke-dasharray:none;-inkscape-stroke:hairline;stroke-opacity:1"
       id="path263" />
    <path
       d="m 22.4883,628.15783 a 6.6142,6.6142 0 0 0 -13.2284,0 6.6142,6.6142 0 0 0 13.2284,0 z"
       style="vector-effect:non-scaling-stroke;fill:none;stroke:#3f51b5;stroke-width:1.00000003;stroke-linecap:round;stroke-dasharray:none;-inkscape-stroke:hairline;stroke-opacity:1"
       id="path264" />
    <path
       style="vector-effect:non-scaling-stroke;fill:none;stroke:#3f51b5;stroke-width:1.00000003;stroke-linecap:round;stroke-dasharray:none;-inkscape-stroke:hairline;stroke-opacity:1"
       d="M 644.03,0 H 0"
       id="path265" />
    <path
       style="vector-effect:non-scaling-stroke;fill:none;stroke:#3f51b5;stroke-width:1.00000003;stroke-linecap:round;stroke-dasharray:none;-inkscape-stroke:hairline;stroke-opacity:1"
       d="M 644.03,644.03184 V 0"
       id="path266" />
    <path
       style="vector-effect:non-scaling-stroke;fill:none;stroke:#3f51b5;stroke-width:1.00000003;stroke-linecap:round;stroke-dasharray:none;-inkscape-stroke:hairline;stroke-opacity:1"
       d="M 0,644.03184 H 644.03"
       id="path267" />
    <path
       style="vector-effect:non-scaling-stroke;fill:none;stroke:#3f51b5;stroke-width:1.00000003;stroke-linecap:round;stroke-dasharray:none;-inkscape-stroke:hairline;stroke-opacity:1"
       d="M 0,0 V 644.03184"
       id="path268" />
    <g
       id="g16"
       transform="translate(-1754.2215,639.88498)"
       style="fill:none;stroke:#3f51b5;stroke-opacity:1;vector-effect:non-scaling-stroke;-inkscape-stroke:hairline;stroke-width:1.00000003;stroke-dasharray:none">
      <path
         d="m 2019.7045,-76.15574 a 4.724409,4.724409 0 0 0 -9.4488,0 4.724409,4.724409 0 0 0 9.4488,0 z"
         style="vector-effect:non-scaling-stroke;fill:none;stroke:#3f51b5;stroke-width:1.00000003;stroke-dasharray:none;stroke-opacity:1;-inkscape-stroke:hairline"
         id="path10-4" />
      <path
         d="m 2019.7045,-6.23454 a 4.724409,4.724409 0 0 0 -9.4488,0 4.724409,4.724409 0 0 0 9.4488,0 z"
         style="vector-effect:non-scaling-stroke;fill:none;stroke:#3f51b5;stroke-width:1.00000003;stroke-dasharray:none;stroke-opacity:1;-inkscape-stroke:hairline"
         id="path11" />
      <path
         d="m 1886.3651,-94.76224 a 4.72441,4.72441 0 0 0 -9.4488,0 4.72441,4.72441 0 0 0 9.4488,0 z"
         style="vector-effect:non-scaling-stroke;fill:none;stroke:#3f51b5;stroke-width:1.00000003;stroke-dasharray:none;stroke-opacity:1;-inkscape-stroke:hairline"
         id="path12" />
      <path
         d="m 2069.5317,-97.62014 a 26.4567,26.4567 0 0 0 -52.9134,0 26.4567,26.4567 0 0 0 52.9134,0 z"
         style="vector-effect:non-scaling-stroke;fill:none;stroke:#3f51b5;stroke-width:1.00000003;stroke-dasharray:none;stroke-opacity:1;-inkscape-stroke:hairline"
         id="path14" />
    </g>
    <path
       d="m 1867.0736,-94.76224 a 4.72441,4.72441 0 0 0 -9.4488,0 4.72441,4.72441 0 0 0 9.4488,0 z"
       style="vector-effect:non-scaling-stroke;fill:none;stroke:#3f51b5;stroke-width:1.00000003;stroke-dasharray:none;stroke-opacity:1;-inkscape-stroke:hairline"
       id="path12-4"
       transform="translate(-1734.93,639.88498)" />
    <g
       id="g17"
       transform="translate(-1751.2181,692.59776)"
       style="fill:none;stroke:#3f51b5;stroke-opacity:1;vector-effect:non-scaling-stroke;-inkscape-stroke:hairline;stroke-width:1.00000003;stroke-dasharray:none">
      <path
         d="m 2033.5481,-323.33776 a 7.559055,7.559055 0 0 0 -15.1181,0 7.559055,7.559055 0 0 0 15.1181,0 z"
         style="fill:none;stroke:#3f51b5;stroke-opacity:1;vector-effect:non-scaling-stroke;-inkscape-stroke:hairline;stroke-width:1.00000003;stroke-dasharray:none"
         id="path16" />
      <path
         d="m 2065.0442,-323.33776 a 7.559055,7.559055 0 0 0 -15.1181,0 7.559055,7.559055 0 0 0 15.1181,0 z"
         style="fill:none;stroke:#3f51b5;stroke-opacity:1;vector-effect:non-scaling-stroke;-inkscape-stroke:hairline;stroke-width:1.00000003;stroke-dasharray:none"
         id="path17" />
      <path
         d="m 2096.5402,-323.33776 a 7.559055,7.559055 0 0 0 -15.1181,0 7.559055,7.559055 0 0 0 15.1181,0 z"
         style="fill:none;stroke:#3f51b5;stroke-opacity:1;vector-effect:non-scaling-stroke;-inkscape-stroke:hairline;stroke-width:1.00000003;stroke-dasharray:none"
         id="path18" />
      <path
         d="m 2128.0363,-323.33776 a 7.559055,7.559055 0 0 0 -15.1181,0 7.559055,7.559055 0 0 0 15.1181,0 z"
         style="fill:none;stroke:#3f51b5;stroke-opacity:1;vector-effect:non-scaling-stroke;-inkscape-stroke:hairline;stroke-width:1.00000003;stroke-dasharray:none"
         id="path19" />
      <path
         d="m 2033.5481,-354.83383 a 7.559055,7.559055 0 0 0 -15.1181,0 7.559055,7.559055 0 0 0 15.1181,0 z"
         style="fill:none;stroke:#3f51b5;stroke-opacity:1;vector-effect:non-scaling-stroke;-inkscape-stroke:hairline;stroke-width:1.00000003;stroke-dasharray:none"
         id="path20" />
      <path
         d="m 2065.0442,-354.83383 a 7.559055,7.559055 0 0 0 -15.1181,0 7.559055,7.559055 0 0 0 15.1181,0 z"
         style="fill:none;stroke:#3f51b5;stroke-opacity:1;vector-effect:non-scaling-stroke;-inkscape-stroke:hairline;stroke-width:1.00000003;stroke-dasharray:none"
         id="path21" />
      <path
         d="m 2096.5402,-354.83383 a 7.559055,7.559055 0 0 0 -15.1181,0 7.559055,7.559055 0 0 0 15.1181,0 z"
         style="fill:none;stroke:#3f51b5;stroke-opacity:1;vector-effect:non-scaling-stroke;-inkscape-stroke:hairline;stroke-width:1.00000003;stroke-dasharray:none"
         id="path22" />
      <path
         d="m 2128.0363,-354.83383 a 7.559055,7.559055 0 0 0 -15.1181,0 7.559055,7.559055 0 0 0 15.1181,0 z"
         style="fill:none;stroke:#3f51b5;stroke-opacity:1;vector-effect:non-scaling-stroke;-inkscape-stroke:hairline;stroke-width:1.00000003;stroke-dasharray:none"
         id="path23" />
      <path
         d="m 2033.5481,-386.32989 a 7.559055,7.559055 0 0 0 -15.1181,0 7.559055,7.559055 0 0 0 15.1181,0 z"
         style="fill:none;stroke:#3f51b5;stroke-opacity:1;vector-effect:non-scaling-stroke;-inkscape-stroke:hairline;stroke-width:1.00000003;stroke-dasharray:none"
         id="path24" />
      <path
         d="m 2065.0442,-386.32989 a 7.559055,7.559055 0 0 0 -15.1181,0 7.559055,7.559055 0 0 0 15.1181,0 z"
         style="fill:none;stroke:#3f51b5;stroke-opacity:1;vector-effect:non-scaling-stroke;-inkscape-stroke:hairline;stroke-width:1.00000003;stroke-dasharray:none"
         id="path25" />
      <path
         d="m 2096.5402,-386.32989 a 7.559055,7.559055 0 0 0 -15.1181,0 7.559055,7.559055 0 0 0 15.1181,0 z"
         style="fill:none;stroke:#3f51b5;stroke-opacity:1;vector-effect:non-scaling-stroke;-inkscape-stroke:hairline;stroke-width:1.00000003;stroke-dasharray:none"
         id="path26" />
      <path
         d="m 2128.0363,-386.32989 a 7.559055,7.559055 0 0 0 -15.1181,0 7.559055,7.559055 0 0 0 15.1181,0 z"
         style="fill:none;stroke:#3f51b5;stroke-opacity:1;vector-effect:non-scaling-stroke;-inkscape-stroke:hairline;stroke-width:1.00000003;stroke-dasharray:none"
         id="path27" />
      <path
         d="m 2033.5481,-417.82595 a 7.559055,7.559055 0 0 0 -15.1181,0 7.559055,7.559055 0 0 0 15.1181,0 z"
         style="fill:none;stroke:#3f51b5;stroke-opacity:1;vector-effect:non-scaling-stroke;-inkscape-stroke:hairline;stroke-width:1.00000003;stroke-dasharray:none"
         id="path28" />
      <path
         d="m 2065.0442,-417.82595 a 7.559055,7.559055 0 0 0 -15.1181,0 7.559055,7.559055 0 0 0 15.1181,0 z"
         style="fill:none;stroke:#3f51b5;stroke-opacity:1;vector-effect:non-scaling-stroke;-inkscape-stroke:hairline;stroke-width:1.00000003;stroke-dasharray:none"
         id="path29" />
      <path
         d="m 2096.5402,-417.82595 a 7.559055,7.559055 0 0 0 -15.1181,0 7.559055,7.559055 0 0 0 15.1181,0 z"
         style="fill:none;stroke:#3f51b5;stroke-opacity:1;vector-effect:non-scaling-stroke;-inkscape-stroke:hairline;stroke-width:1.00000003;stroke-dasharray:none"
         id="path30" />
      <path
         d="m 2128.0363,-417.82595 a 7.559055,7.559055 0 0 0 -15.1181,0 7.559055,7.559055 0 0 0 15.1181,0 z"
         style="fill:none;stroke:#3f51b5;stroke-opacity:1;vector-effect:non-scaling-stroke;-inkscape-stroke:hairline;stroke-width:1.00000003;stroke-dasharray:none"
         id="path31" />
    </g>
  </g>
</svg>
