<?xml version="1.0" encoding="UTF-8" standalone="no"?>
<svg
   viewBox="0 0 492.33858 492.33861"
   width="492.33859"
   height="492.33859"
   version="1.1"
   id="svg9"
   sodipodi:docname="L3D 6x6x6 Top Panel.svg"
   inkscape:version="1.4-beta3 (01c8a1ca, 2024-08-28)"
   xmlns:inkscape="http://www.inkscape.org/namespaces/inkscape"
   xmlns:sodipodi="http://sodipodi.sourceforge.net/DTD/sodipodi-0.dtd"
   xmlns="http://www.w3.org/2000/svg"
   xmlns:svg="http://www.w3.org/2000/svg">
  <sodipodi:namedview
     id="namedview9"
     pagecolor="#ffffff"
     bordercolor="#666666"
     borderopacity="1.0"
     inkscape:showpageshadow="2"
     inkscape:pageopacity="0.0"
     inkscape:pagecheckerboard="0"
     inkscape:deskcolor="#d1d1d1"
     inkscape:zoom="2.3723511"
     inkscape:cx="246.1693"
     inkscape:cy="246.1693"
     inkscape:window-width="2560"
     inkscape:window-height="1387"
     inkscape:window-x="750"
     inkscape:window-y="25"
     inkscape:window-maximized="0"
     inkscape:current-layer="g9" />
  <desc
     id="desc1">L3D 6x6x6 Top Panel.dxf - scale = 1.000000, origin = (0.000000, 0.000000), method = manual</desc>
  <defs
     id="defs4">
    <marker
       id="DistanceX"
       orient="auto"
       refX="0"
       refY="0"
       style="overflow:visible">
      <path
         d="M 3,-3 -3,3 M 0,-5 V 5"
         style="stroke:#000000;stroke-width:0.5"
         id="path1" />
    </marker>
    <pattern
       id="Hatch"
       patternUnits="userSpaceOnUse"
       width="8"
       height="8"
       x="0"
       y="0">
      <path
         d="M8 4 l-4,4"
         stroke="#000000"
         stroke-width="0.25"
         linecap="square"
         id="path2" />
      <path
         d="M6 2 l-4,4"
         stroke="#000000"
         stroke-width="0.25"
         linecap="square"
         id="path3" />
      <path
         d="M4 0 l-4,4"
         stroke="#000000"
         stroke-width="0.25"
         linecap="square"
         id="path4" />
    </pattern>
    <symbol
       id="*MODEL_SPACE" />
    <symbol
       id="*PAPER_SPACE" />
  </defs>
  <g
     inkscape:groupmode="layer"
     inkscape:label="0"
     id="g9"
     transform="translate(246.16929,-876.35039)">
    <path
       d="M -245.66929,876.85039 H 245.66929 V 1368.189 h -491.33858 z"
       style="fill:none;stroke:#000000"
       id="path5" />
    <path
       d="m -222.61417,892.72441 a 7.181105,7.181105 0 0 0 -14.36221,0 7.181105,7.181105 0 0 0 14.36221,0 z"
       style="fill:none;stroke:#000000"
       id="path6" />
    <path
       d="m 236.97638,892.72441 a 7.181105,7.181105 0 0 0 -14.36221,0 7.181105,7.181105 0 0 0 14.36221,0 z"
       style="fill:none;stroke:#000000"
       id="path7" />
    <path
       d="m -222.61417,1352.315 a 7.181105,7.181105 0 0 0 -14.36221,0 7.181105,7.181105 0 0 0 14.36221,0 z"
       style="fill:none;stroke:#000000"
       id="path8" />
    <path
       d="m 236.97638,1352.315 a 7.181105,7.181105 0 0 0 -14.36221,0 7.181105,7.181105 0 0 0 14.36221,0 z"
       style="fill:none;stroke:#000000"
       id="path9" />
  </g>
</svg>
