<?xml version="1.0" encoding="UTF-8" standalone="no"?>
<svg
   viewBox="0 0 492.33859 492.33862"
   width="130.26459mm"
   height="130.26459mm"
   version="1.1"
   id="svg32"
   sodipodi:docname="L3D 6x6x6 - Bottom - PixelBlaze.svg"
   inkscape:version="1.4-beta3 (01c8a1ca, 2024-08-28)"
   xmlns:inkscape="http://www.inkscape.org/namespaces/inkscape"
   xmlns:sodipodi="http://sodipodi.sourceforge.net/DTD/sodipodi-0.dtd"
   xmlns="http://www.w3.org/2000/svg"
   xmlns:svg="http://www.w3.org/2000/svg">
  <sodipodi:namedview
     id="namedview32"
     pagecolor="#ffffff"
     bordercolor="#666666"
     borderopacity="1.0"
     inkscape:showpageshadow="2"
     inkscape:pageopacity="0.0"
     inkscape:pagecheckerboard="0"
     inkscape:deskcolor="#d1d1d1"
     inkscape:zoom="1.7223919"
     inkscape:cx="246.45959"
     inkscape:cy="246.1693"
     inkscape:window-width="1792"
     inkscape:window-height="1067"
     inkscape:window-x="0"
     inkscape:window-y="25"
     inkscape:window-maximized="0"
     inkscape:current-layer="g32"
     inkscape:document-units="mm" />
  <desc
     id="desc1">L3D 6x6x6 - Bottom - PixelBlaze.dxf - scale = 1.000000, origin = (0.000000, 0.000000), method = manual</desc>
  <defs
     id="defs4">
    <marker
       id="DistanceX"
       orient="auto"
       refX="0"
       refY="0"
       style="overflow:visible">
      <path
         d="M 3,-3 -3,3 M 0,-5 V 5"
         style="stroke:#000000;stroke-width:0.5"
         id="path1" />
    </marker>
    <pattern
       id="Hatch"
       patternUnits="userSpaceOnUse"
       width="8"
       height="8"
       x="0"
       y="0">
      <path
         d="M8 4 l-4,4"
         stroke="#000000"
         stroke-width="0.25"
         linecap="square"
         id="path2" />
      <path
         d="M6 2 l-4,4"
         stroke="#000000"
         stroke-width="0.25"
         linecap="square"
         id="path3" />
      <path
         d="M4 0 l-4,4"
         stroke="#000000"
         stroke-width="0.25"
         linecap="square"
         id="path4" />
    </pattern>
    <symbol
       id="*MODEL_SPACE" />
    <symbol
       id="*PAPER_SPACE" />
  </defs>
  <g
     inkscape:groupmode="layer"
     inkscape:label="0"
     id="g32"
     transform="translate(257.54081,-622.54942)">
    <path
       d="M 234.29777,623.04942 H -257.04081 V 1114.388 h 491.33858 z"
       style="fill:none;stroke:#000000"
       id="path5" />
    <path
       d="m 225.60486,638.92344 a 7.1811025,7.1811025 0 0 0 -14.3622,0 7.1811025,7.1811025 0 0 0 14.3622,0 z"
       style="fill:none;stroke:#000000"
       id="path6" />
    <path
       d="m 225.60486,1098.514 a 7.1811025,7.1811025 0 0 0 -14.3622,0 7.1811025,7.1811025 0 0 0 14.3622,0 z"
       style="fill:none;stroke:#000000"
       id="path7" />
    <path
       d="m -233.98569,638.92344 a 7.1811025,7.1811025 0 0 0 -14.3622,0 7.1811025,7.1811025 0 0 0 14.3622,0 z"
       style="fill:none;stroke:#000000"
       id="path8" />
    <path
       d="m -233.98569,1098.514 a 7.1811025,7.1811025 0 0 0 -14.3622,0 7.1811025,7.1811025 0 0 0 14.3622,0 z"
       style="fill:none;stroke:#000000"
       id="path9" />
    <path
       d="m -12.283465,1034.1081 a 4.724409,4.724409 0 0 0 -9.448818,0 4.724409,4.724409 0 0 0 9.448818,0 z"
       style="fill:none;stroke:#000000"
       id="path10" />
    <path
       d="m -12.283465,1104.0293 a 4.724409,4.724409 0 0 0 -9.448818,0 4.724409,4.724409 0 0 0 9.448818,0 z"
       style="fill:none;stroke:#000000"
       id="path11" />
    <path
       d="m -145.62293,1015.5016 a 4.72441,4.72441 0 0 0 -9.44882,0 4.72441,4.72441 0 0 0 9.44882,0 z"
       style="fill:none;stroke:#000000"
       id="path12" />
    <path
       d="m 37.543686,1012.6437 a 26.456693,26.456693 0 0 0 -52.913386,0 26.456693,26.456693 0 0 0 52.913386,0 z"
       style="fill:none;stroke:#000000"
       id="path14" />
    <path
       d="m -50.978283,915.88454 a 7.559055,7.559055 0 0 0 -15.11811,0 7.559055,7.559055 0 0 0 15.11811,0 z"
       style="fill:none;stroke:#000000"
       id="path16" />
    <path
       d="m -19.48222,915.88454 a 7.559055,7.559055 0 0 0 -15.11811,0 7.559055,7.559055 0 0 0 15.11811,0 z"
       style="fill:none;stroke:#000000"
       id="path17" />
    <path
       d="m 12.013843,915.88454 a 7.559055,7.559055 0 0 0 -15.11811,0 7.559055,7.559055 0 0 0 15.11811,0 z"
       style="fill:none;stroke:#000000"
       id="path18" />
    <path
       d="m 43.509906,915.88454 a 7.559055,7.559055 0 0 0 -15.11811,0 7.559055,7.559055 0 0 0 15.11811,0 z"
       style="fill:none;stroke:#000000"
       id="path19" />
    <path
       d="m -50.978283,884.38847 a 7.559055,7.559055 0 0 0 -15.11811,0 7.559055,7.559055 0 0 0 15.11811,0 z"
       style="fill:none;stroke:#000000"
       id="path20" />
    <path
       d="m -19.48222,884.38847 a 7.559055,7.559055 0 0 0 -15.11811,0 7.559055,7.559055 0 0 0 15.11811,0 z"
       style="fill:none;stroke:#000000"
       id="path21" />
    <path
       d="m 12.013843,884.38847 a 7.559055,7.559055 0 0 0 -15.11811,0 7.559055,7.559055 0 0 0 15.11811,0 z"
       style="fill:none;stroke:#000000"
       id="path22" />
    <path
       d="m 43.509906,884.38847 a 7.559055,7.559055 0 0 0 -15.11811,0 7.559055,7.559055 0 0 0 15.11811,0 z"
       style="fill:none;stroke:#000000"
       id="path23" />
    <path
       d="m -50.978283,852.89241 a 7.559055,7.559055 0 0 0 -15.11811,0 7.559055,7.559055 0 0 0 15.11811,0 z"
       style="fill:none;stroke:#000000"
       id="path24" />
    <path
       d="m -19.48222,852.89241 a 7.559055,7.559055 0 0 0 -15.11811,0 7.559055,7.559055 0 0 0 15.11811,0 z"
       style="fill:none;stroke:#000000"
       id="path25" />
    <path
       d="m 12.013843,852.89241 a 7.559055,7.559055 0 0 0 -15.11811,0 7.559055,7.559055 0 0 0 15.11811,0 z"
       style="fill:none;stroke:#000000"
       id="path26" />
    <path
       d="m 43.509906,852.89241 a 7.559055,7.559055 0 0 0 -15.11811,0 7.559055,7.559055 0 0 0 15.11811,0 z"
       style="fill:none;stroke:#000000"
       id="path27" />
    <path
       d="m -50.978283,821.39635 a 7.559055,7.559055 0 0 0 -15.11811,0 7.559055,7.559055 0 0 0 15.11811,0 z"
       style="fill:none;stroke:#000000"
       id="path28" />
    <path
       d="m -19.48222,821.39635 a 7.559055,7.559055 0 0 0 -15.11811,0 7.559055,7.559055 0 0 0 15.11811,0 z"
       style="fill:none;stroke:#000000"
       id="path29" />
    <path
       d="m 12.013843,821.39635 a 7.559055,7.559055 0 0 0 -15.11811,0 7.559055,7.559055 0 0 0 15.11811,0 z"
       style="fill:none;stroke:#000000"
       id="path30" />
    <path
       d="m 43.509906,821.39635 a 7.559055,7.559055 0 0 0 -15.11811,0 7.559055,7.559055 0 0 0 15.11811,0 z"
       style="fill:none;stroke:#000000"
       id="path31" />
  </g>
</svg>
