<?xml version="1.0" encoding="UTF-8"?>
<!DOCTYPE svg PUBLIC "-//W3C//DTD SVG 1.1//EN" "http://www.w3.org/Graphics/SVG/1.1/DTD/svg11.dtd">
<!-- Creator: CorelDRAW -->
<svg xmlns="http://www.w3.org/2000/svg" xml:space="preserve" width="200mm" height="168mm" style="shape-rendering:geometricPrecision; text-rendering:geometricPrecision; image-rendering:optimizeQuality; fill-rule:evenodd; clip-rule:evenodd"
viewBox="0 0 200 168">
 <defs>
  <style type="text/css">
   <![CDATA[
    .fil1 {fill:#1F1A17}
    .fil0 {fill:white}
   ]]>
  </style>
 </defs>
 <g id="background">
  <metadata id="CorelCorpID_0Corel-Layer"/>
  <path class="fil0" d="M124.947 106.05c0,23.1639 -1.7526,44.5883 -4.7245,62.0247l-8.6306 -8.6306c1.8316,-14.175 2.9444,-32.8832 2.9444,-53.3941 0,-44.2472 -5.1832,-80.1293 -11.5745,-80.1293 -6.3913,0 -11.5746,35.8821 -11.5746,80.1293 0,17.7254 0.8337,34.104 2.2418,47.3757l-13.9665 13.9665c-2.9017,-17.3113 -4.6092,-38.4816 -4.6092,-61.3422 0,-58.4895 11.1713,-105.924 24.9469,-105.924 13.7756,0 24.9468,47.4345 24.9468,105.924z"/>
  <path class="fil1" d="M121.391 106.05c0,19.7332 -1.2325,38.1259 -3.361,53.6006l-3.1196 -3.1195c1.8439,-14.1235 2.9331,-31.5815 2.9331,-50.4811 0,-46.9861 -6.7371,-85.0898 -15.0469,-85.0898 -8.3092,0 -15.0469,38.1037 -15.0469,85.0898 0,16.4276 0.8253,31.7655 2.2516,44.7723l-8.1228 8.1228c-2.0691,-15.3276 -3.2687,-33.4592 -3.2687,-52.8951 0,-54.9808 9.5791,-99.5681 21.3906,-99.5681 11.8115,0 21.3906,44.5873 21.3906,99.5681z"/>
  <path class="fil0" d="M91.4677 129.492c-54.9622,-20.0046 -95.7153,-46.7257 -91.0038,-59.6705 3.9023,-10.7213 37.7695,-8.6347 80.5148,3.7635l-6.6558 14.8564c-28.1285,-8.4063 -48.9737,-11.5728 -50.6328,-7.0146 -2.1859,6.0058 29.7594,23.1489 71.3382,38.2823 41.5789,15.1335 77.0698,22.5352 79.2557,16.5294 1.5907,-4.3705 -14.8958,-14.6387 -40.013,-25.7383l6.567 -14.6584c37.6996,17.3368 62.425,36.1962 58.698,46.436 -4.7115,12.9448 -53.1062,7.2188 -108.068,-12.7858z"/>
  <path class="fil1" d="M92.684 126.15c-51.6651,-18.8045 -90.2872,-43.0557 -86.2474,-54.1549 3.2923,-9.0455 33.9064,-6.5677 73.0874,4.8368l-3.7541 8.3795c-31.0288,-9.0155 -54.479,-11.6965 -56.6846,-5.6368 -2.8421,7.8086 30.6595,27.1717 74.812,43.2419 44.1525,16.0702 82.2625,22.7716 85.1046,14.963 2.1114,-5.8008 -15.8398,-17.9793 -43.3117,-30.4472l3.713 -8.288c34.5919,15.8074 57.3052,32.4186 54.1602,41.0594 -4.0398,11.0992 -49.2143,4.8509 -100.879,-13.9537z"/>
  <path class="fil0" d="M91.4677 82.6073c54.9621,-20.0046 103.357,-25.7307 108.068,-12.7858 3.9349,10.811 -23.8451,31.2299 -65.1258,49.3212l-5.4424 -15.2424c28.0676,-11.9601 47.0164,-23.3684 45.3162,-28.0395 -2.1859,-6.0058 -37.6768,1.3959 -79.2557,16.5293 -41.5788,15.1335 -73.5241,32.2766 -71.3382,38.2824 1.5509,4.2609 19.8683,1.7714 45.2274,-5.438l5.4076 15.145c-39.5631,10.715 -70.1638,12.0567 -73.8612,1.8983 -4.7115,-12.9449 36.0416,-39.666 91.0038,-59.6705z"/>
  <path class="fil1" d="M92.684 85.9491c51.6651,-18.8046 96.8396,-25.053 100.879,-13.9538 3.3287,9.1455 -22.3104,27.2197 -60.3415,43.8193l-3.0666 -8.5884c30.5623,-13.2996 51.0967,-26.7246 48.8466,-32.9066 -2.8421,-7.8086 -40.9521,-1.1072 -85.1046,14.963 -44.1525,16.0701 -77.6541,35.4333 -74.812,43.2419 2.0686,5.6835 22.8261,3.6775 50.9957,-4.0314l3.0612 8.5733c-36.0823,9.8421 -63.5943,11.5855 -66.7056,3.0375 -4.0398,-11.0992 34.5823,-35.3503 86.2474,-54.1548z"/>
 </g>
 <g id="foreground">
  <metadata id="CorelCorpID_1Corel-Layer"/>
  <path class="fil0" d="M1.8777 67.5854c9.4597,-9.9244 55.1763,-3.7147 106.655,15.0219 51.4784,18.7365 90.4898,43.3654 91.3571,57.0484l-32.9177 -11.981c-11.5568,-8.0274 -35.5252,-19.3452 -64.0259,-29.7186 -28.5007,-10.3734 -54.1388,-17.1109 -68.1517,-18.3901l-32.9164 -11.9806z"/>
  <path class="fil1" d="M193.128 140.986l-14.0873 -5.1274c-2.2264,-8.7396 -33.971,-26.4414 -74.8508,-41.3204 -40.8799,-14.8791 -76.5748,-21.7232 -83.898,-16.4594l-14.0878 -5.1275c0.0471,-0.3275 0.1203,-0.6476 0.2324,-0.9556 4.0398,-11.0992 49.2143,-4.8508 100.879,13.9538 51.6651,18.8045 90.2872,43.0556 86.2474,54.1548 -0.1121,0.308 -0.2609,0.6006 -0.4353,0.8817z"/>
  <path class="fil0" d="M199.89 72.4432c-0.8672,13.683 -39.8796,38.3122 -91.358,57.0488 -51.4783,18.7366 -97.194,24.9459 -106.654,15.0215l32.9177 -11.981c14.0129,-1.2793 39.6487,-8.0159 68.1494,-18.3893 28.5007,-10.3734 52.4714,-21.6921 64.0282,-29.7195l32.9163 -11.9805z"/>
  <path class="fil1" d="M6.2033 139.149l14.0873 -5.1273c7.3232,5.2638 43.0195,-1.5809 83.8994,-16.4599 40.8798,-14.879 72.623,-32.5804 74.8494,-41.32l14.0878 -5.1275c0.1744,0.2811 0.3241,0.5733 0.4362,0.8813 4.0398,11.0992 -34.5823,35.3504 -86.2474,54.1549 -51.6651,18.8046 -96.8396,25.0529 -100.879,13.9537 -0.1121,-0.308 -0.1862,-0.6277 -0.2333,-0.9552z"/>
  <path class="fil0" d="M79.6638 167.39c-2.9017,-17.3108 -4.6107,-38.4801 -4.6107,-61.3407 0,-54.7821 9.8009,-99.8644 22.3621,-105.359l0 35.0303c-3.5906,13.6054 -6.0282,39.9992 -6.0282,70.329 0,17.7245 0.8351,34.104 2.2433,47.3742l-13.9665 13.9665z"/>
  <path class="fil1" d="M100.977 6.589l0 14.9914c-7.4511,5.0813 -13.2281,40.9658 -13.2281,84.4692 0,16.4276 0.8253,31.766 2.2516,44.7723l-8.1228 8.1228c-2.0691,-15.3276 -3.2687,-33.4592 -3.2687,-52.8951 0,-54.9808 9.5791,-99.5681 21.3906,-99.5681 0.3277,0 0.6535,0.0398 0.9774,0.1075z"/>
 </g>
</svg>
