<?xml version="1.0" encoding="UTF-8" standalone="no"?>
<svg
   xmlns:dc="http://purl.org/dc/elements/1.1/"
   xmlns:cc="http://creativecommons.org/ns#"
   xmlns:rdf="http://www.w3.org/1999/02/22-rdf-syntax-ns#"
   xmlns:svg="http://www.w3.org/2000/svg"
   xmlns="http://www.w3.org/2000/svg"
   xmlns:sodipodi="http://sodipodi.sourceforge.net/DTD/sodipodi-0.dtd"
   xmlns:inkscape="http://www.inkscape.org/namespaces/inkscape"
   version="1.1"
   id="Layer_1"
   x="0px"
   y="0px"
   width="1024px"
   height="720px"
   viewBox="0 0 1024 720"
   enable-background="new 0 0 1024 720"
   xml:space="preserve"
   inkscape:version="0.91 r13725"
   sodipodi:docname="evil_genius_labs_fixed.svg"><metadata
     id="metadata76"><rdf:RDF><cc:Work
         rdf:about=""><dc:format>image/svg+xml</dc:format><dc:type
           rdf:resource="http://purl.org/dc/dcmitype/StillImage" /><dc:title /></cc:Work></rdf:RDF></metadata><defs
     id="defs74" /><sodipodi:namedview
     pagecolor="#ffffff"
     bordercolor="#666666"
     borderopacity="1"
     objecttolerance="10"
     gridtolerance="10"
     guidetolerance="10"
     inkscape:pageopacity="0"
     inkscape:pageshadow="2"
     inkscape:window-width="2048"
     inkscape:window-height="1089"
     id="namedview72"
     showgrid="false"
     inkscape:snap-intersection-paths="true"
     inkscape:zoom="2.0202895"
     inkscape:cx="438.9908"
     inkscape:cy="359.99988"
     inkscape:window-x="-8"
     inkscape:window-y="-8"
     inkscape:window-maximized="1"
     inkscape:current-layer="Layer_1" /><linearGradient
     id="SVGID_1_"
     gradientUnits="userSpaceOnUse"
     x1="284.5815"
     y1="351.2559"
     x2="759.3555"
     y2="351.2559"
     gradientTransform="matrix(0.4778 -0.8785 0.8785 0.4778 -45.0054 686.1676)"><stop
       offset="0"
       style="stop-color:#0F00D4"
       id="stop4" /><stop
       offset="1"
       style="stop-color:#001194"
       id="stop6" /></linearGradient><path
     fill="url(#SVGID_1_)"
     d="M451.853,301.288c-58.725,45.452-102.805,98.059-125.051,144.53l10.971,6.159  c0.345-0.672,0.686-1.344,1.04-2.016c23.282-44.188,67.297-93.265,120.764-134.652c49.741-38.497,102.405-66.637,148.288-79.238  c46.705-12.823,81.055-7.999,96.722,13.574c14.32,19.712,11.132,51.585-8.971,89.743c-23.283,44.19-67.299,93.268-120.764,134.65  c-30.872,23.894-69.868,49.789-100.675,64.468l11.299-3.592c30.321-14.832,62.195-34.739,93.567-59.026  c108.001-83.598,169.12-187.233,133.271-236.592C676.471,189.94,559.855,217.693,451.853,301.288z"
     id="path8" /><linearGradient
     id="SVGID_2_"
     gradientUnits="userSpaceOnUse"
     x1="298.0708"
     y1="351.2563"
     x2="759.3555"
     y2="351.2563"
     gradientTransform="matrix(0.4778 -0.8785 0.8785 0.4778 -45.0054 686.1676)"><stop
       offset="0"
       style="stop-color:#0F00D4"
       id="stop11" /><stop
       offset="1"
       style="stop-color:#001194"
       id="stop13" /></linearGradient><path
     fill="url(#SVGID_2_)"
     d="M451.853,301.288c-58.725,45.452-102.805,98.059-125.051,144.53l10.971,6.159  c0.345-0.672,0.686-1.344,1.04-2.016c23.282-44.188,67.297-93.265,120.764-134.652c49.741-38.497,102.405-66.637,148.288-79.238  c46.705-12.823,81.055-7.999,96.722,13.574c14.32,19.712,11.132,51.585-8.971,89.743c-15.314,29.062-39.634,60.232-69.674,89.944  l4.114,2.31c75.048-73.19,111.98-151.423,82.258-192.346C676.471,189.94,559.855,217.693,451.853,301.288z"
     id="path15" /><radialGradient
     id="SVGID_3_"
     cx="362.2891"
     cy="676.7441"
     r="18.8337"
     gradientTransform="matrix(1.0994 0.3375 -0.3269 1.135 155.9422 -441.8387)"
     gradientUnits="userSpaceOnUse"><stop
       offset="0"
       style="stop-color:#0F00D4"
       id="stop18" /><stop
       offset="1"
       style="stop-color:#001194"
       id="stop20" /></radialGradient><path
     fill="url(#SVGID_3_)"
     d="M350.176,462.075c-7.243,9.783-20.794,11.657-30.274,4.18c-9.473-7.475-11.288-21.468-4.047-31.252  c7.242-9.784,20.795-11.655,30.271-4.18C355.602,438.301,357.417,452.291,350.176,462.075z"
     id="path22" /><linearGradient
     id="SVGID_4_"
     gradientUnits="userSpaceOnUse"
     x1="173.2295"
     y1="118.042"
     x2="657.33"
     y2="118.042"
     gradientTransform="matrix(0.5514 0.8343 -0.8343 0.5514 368.3249 -77.5676)"><stop
       offset="0"
       style="stop-color:#64C08A"
       id="stop25" /><stop
       offset="1"
       style="stop-color:#009B00"
       id="stop27" /></linearGradient><path
     fill="url(#SVGID_4_)"
     d="M613.232,328.121c-12.565-73.188-38.322-136.806-68.913-178.264l-10.588,6.795  c0.433,0.621,0.864,1.237,1.292,1.866c28.086,41.299,50.758,103.202,62.202,169.841c10.643,61.991,10.767,121.702,0.354,168.13  c-10.603,47.259-30.986,75.323-57.391,79.03c-24.126,3.39-50.772-14.387-75.027-50.05c-28.089-41.303-50.761-103.205-62.202-169.839  c-6.606-38.475-11.152-94.067-9.651-128.16l-2.145,20.666c-1.139,33.735,1.477,71.224,8.195,110.326  c23.115,134.605,85.93,237.221,146.341,228.737C606.106,578.722,636.343,462.727,613.232,328.121z"
     id="path29" /><linearGradient
     id="SVGID_5_"
     gradientUnits="userSpaceOnUse"
     x1="196.0527"
     y1="118.042"
     x2="657.3301"
     y2="118.042"
     gradientTransform="matrix(0.5514 0.8343 -0.8343 0.5514 368.3249 -77.5676)"><stop
       offset="0"
       style="stop-color:#64C08A"
       id="stop32" /><stop
       offset="1"
       style="stop-color:#009B00"
       id="stop34" /></linearGradient><path
     fill="url(#SVGID_5_)"
     d="M613.232,328.121c-12.565-73.188-38.322-136.806-68.913-178.264l-10.588,6.795  c0.433,0.621,0.864,1.237,1.292,1.866c28.086,41.299,50.758,103.202,62.202,169.841c10.643,61.991,10.767,121.702,0.354,168.13  c-10.603,47.259-30.986,75.323-57.391,79.03c-24.126,3.39-50.772-14.387-75.027-50.05c-18.472-27.163-34.578-63.269-46.711-103.742  l-3.971,2.55c29.394,100.621,81.134,169.956,131.22,162.923C606.106,578.722,636.343,462.727,613.232,328.121z"
     id="path36" /><radialGradient
     id="SVGID_6_"
     cx="145.1021"
     cy="722.3291"
     r="18.8342"
     gradientTransform="matrix(-0.8141 0.8123 -0.8487 -0.8214 1270.1665 629.5208)"
     gradientUnits="userSpaceOnUse"><stop
       offset="0"
       style="stop-color:#64C08A"
       id="stop39" /><stop
       offset="1"
       style="stop-color:#009B00"
       id="stop41" /></radialGradient><path
     fill="url(#SVGID_6_)"
     d="M518.992,162.865c-5.238-10.987-0.532-23.835,10.521-28.693c11.048-4.855,24.255,0.111,29.494,11.096  c5.241,10.988,0.531,23.834-10.519,28.691C537.437,178.816,524.232,173.851,518.992,162.865z"
     id="path43" /><linearGradient
     id="SVGID_7_"
     gradientUnits="userSpaceOnUse"
     x1="-103.0015"
     y1="244.7539"
     x2="370.8053"
     y2="244.7539"
     gradientTransform="matrix(-0.9937 0.1123 -0.1123 -0.9937 706.4664 589.3312)"><stop
       offset="0"
       style="stop-color:#ED2630"
       id="stop46" /><stop
       offset="0.405"
       style="stop-color:#ED232C"
       id="stop48" /><stop
       offset="1"
       style="stop-color:#A71E22"
       id="stop50" /></linearGradient><path
     fill="url(#SVGID_7_)"
     d="M504.312,465.165c70.91,22.047,139.286,27.993,190.115,19.569l-1.246-12.521  c-0.747,0.104-1.494,0.209-2.249,0.305c-49.549,6.265-114.997-1.652-179.563-21.722c-60.062-18.674-113.316-45.684-149.951-76.046  c-37.288-30.91-53.032-61.816-44.343-87.023c7.939-23.034,35.878-38.699,78.667-44.112c49.554-6.266,115.001,1.65,179.563,21.723  c37.277,11.588,79.925,27.393,109.616,44.215l-8.492-5.904c-29.537-16.334-64.125-31.032-102.012-42.806  c-130.419-40.542-250.371-31.185-270.25,26.488C284.285,344.999,373.894,424.621,504.312,465.165z"
     id="path52" /><linearGradient
     id="SVGID_8_"
     gradientUnits="userSpaceOnUse"
     x1="-90.4878"
     y1="244.7539"
     x2="370.8054"
     y2="244.7539"
     gradientTransform="matrix(-0.9937 0.1123 -0.1123 -0.9937 706.4664 589.3312)"><stop
       offset="0"
       style="stop-color:#ED2630"
       id="stop55" /><stop
       offset="0.405"
       style="stop-color:#ED232C"
       id="stop57" /><stop
       offset="1"
       style="stop-color:#A71E22"
       id="stop59" /></linearGradient><path
     fill="url(#SVGID_8_)"
     d="M504.312,465.165c70.91,22.047,139.286,27.993,190.115,19.569l-1.246-12.521  c-0.747,0.104-1.494,0.209-2.249,0.305c-49.549,6.265-114.997-1.652-179.563-21.722c-60.062-18.674-113.316-45.684-149.951-76.046  c-37.288-30.91-53.032-61.816-44.343-87.023c7.939-23.034,35.878-38.699,78.667-44.112c32.59-4.119,72.072-2.07,113.641,5.503  l-0.468-4.695c-102.996-19.513-188.267-4.908-204.749,42.908C284.285,344.999,373.894,424.621,504.312,465.165z"
     id="path61" /><radialGradient
     id="SVGID_9_"
     cx="199.5039"
     cy="981.3848"
     r="18.834"
     gradientTransform="matrix(-0.3539 -1.0942 1.1173 -0.383 -332.8026 1072.2512)"
     gradientUnits="userSpaceOnUse"><stop
       offset="0"
       style="stop-color:#ED2630"
       id="stop64" /><stop
       offset="0.405"
       style="stop-color:#ED232C"
       id="stop66" /><stop
       offset="1"
       style="stop-color:#A71E22"
       id="stop68" /></radialGradient><path
     fill="url(#SVGID_9_)"
     d="M694.342,456.262c12.168,0.324,21.475,10.352,20.784,22.404  c-0.691,12.048-11.116,21.561-23.281,21.237c-12.17-0.32-21.475-10.352-20.783-22.401  C671.752,465.449,682.174,455.941,694.342,456.262z"
     id="path70" /><path
     style="fill:#030da3;fill-rule:evenodd;stroke:none;stroke-width:1px;stroke-linecap:butt;stroke-linejoin:miter;stroke-opacity:1;fill-opacity:1"
     d="m 550.40534,258.20565 -23.47711,-5.62248 5.93173,-3.08022 12.55507,2.62806 10.73537,3.33824 z"
     id="path4208"
     inkscape:connector-curvature="0" /><path
     style="fill:#36af4b;fill-rule:evenodd;stroke:none;stroke-width:1px;stroke-linecap:butt;stroke-linejoin:miter;stroke-opacity:1;fill-opacity:1"
     d="m 583.42637,267.9031 7.90696,3.0969 9.72674,2.75914 -1.25269,-4.41806 -8.47405,-3.67441 -9.26081,-2.39043 z"
     id="path4210"
     inkscape:connector-curvature="0" /><path
     style="fill:#bf2025;fill-rule:evenodd;stroke:none;stroke-width:1px;stroke-linecap:butt;stroke-linejoin:miter;stroke-opacity:1;fill-opacity:1"
     d="m 391.57345,244.18153 0.65896,-6.34879 0.80804,-0.0907 -0.014,6.23301 z"
     id="path4212"
     inkscape:connector-curvature="0" /><path
     style="fill:#0907bb;fill-rule:evenodd;stroke:none;stroke-width:1px;stroke-linecap:butt;stroke-linejoin:miter;stroke-opacity:1;fill-opacity:1"
     d="m 359.86199,392.69913 9.28993,-11.77802 7.18849,4.2138 4.57969,4.38602 -9.69176,11.73431 -6.78802,-4.39524 z"
     id="path4214"
     inkscape:connector-curvature="0" /><path
     style="fill:#0907bb;fill-rule:evenodd;stroke:none;stroke-width:1px;stroke-linecap:butt;stroke-linejoin:miter;stroke-opacity:1;fill-opacity:1"
     d="m 397.82168,349.09307 3.51372,-3.53027 2.13401,9.57612 0.98932,8.85628 -3.47295,3.54436 -2.28053,-9.30703 z"
     id="path4216"
     inkscape:connector-curvature="0" /></svg>