<?xml version="1.0" encoding="UTF-8" standalone="no"?>
<!-- Created with Inkscape (http://www.inkscape.org/) -->

<svg
   version="1.1"
   id="svg1"
   width="191.61501"
   height="457.535"
   viewBox="0 0 191.615 457.53501"
   sodipodi:docname="ifixit-minnow-16-bit-labels.svg"
   inkscape:version="1.3 (0e150ed, 2023-07-21)"
   xmlns:inkscape="http://www.inkscape.org/namespaces/inkscape"
   xmlns:sodipodi="http://sodipodi.sourceforge.net/DTD/sodipodi-0.dtd"
   xmlns="http://www.w3.org/2000/svg"
   xmlns:svg="http://www.w3.org/2000/svg">
  <sodipodi:namedview
     id="namedview1"
     pagecolor="#ffffff"
     bordercolor="#666666"
     borderopacity="1.0"
     inkscape:showpageshadow="2"
     inkscape:pageopacity="0.0"
     inkscape:pagecheckerboard="0"
     inkscape:deskcolor="#d1d1d1"
     inkscape:zoom="2.5659239"
     inkscape:cx="95.871899"
     inkscape:cy="228.7675"
     inkscape:window-width="2560"
     inkscape:window-height="1387"
     inkscape:window-x="2560"
     inkscape:window-y="25"
     inkscape:window-maximized="0"
     inkscape:current-layer="svg1"
     showgrid="false">
    <inkscape:page
       x="0"
       y="0"
       inkscape:label="1"
       id="page1"
       width="191.61501"
       height="457.535"
       margin="0"
       bleed="0"
       inkscape:export-filename="ifixit-minnow-16-bit-labels.png"
       inkscape:export-xdpi="254"
       inkscape:export-ydpi="254" />
  </sodipodi:namedview>
  <defs
     id="defs1">
    <clipPath
       clipPathUnits="userSpaceOnUse"
       id="clipPath1">
      <path
         d="M 0,0 H 144 V 344 H 0 Z"
         id="path1" />
    </clipPath>
    <clipPath
       clipPathUnits="userSpaceOnUse"
       id="clipPath2">
      <path
         d="M 0,0 H 144 V 344 H 0 Z"
         id="path2" />
    </clipPath>
    <clipPath
       clipPathUnits="userSpaceOnUse"
       id="clipPath66">
      <g
         id="g67"
         style="stroke-width:1.33333"
         transform="scale(0.75000002)">
        <path
           d="m 0.28666666,41.983999 c 0.12,-3.254667 0.98399994,-6.514667 2.55199994,-9.5 C 9.8693331,19.932 20.182666,9.6199998 32.614666,2.5933333 c 2.858666,-1.5626667 6.12,-2.42666664 9.494666,-2.42666664 H 149.63066 c 3.25467,0 6.50934,0.86399994 9.49467,2.43199994 12.55733,7.0319998 22.86933,17.3439994 29.896,29.8959994 1.56267,2.978666 2.42667,6.24 2.42667,9.494666 V 415.54666 c 0,3.26 -0.864,6.516 -2.43734,9.50533 -7.032,12.55733 -17.34933,22.86933 -29.896,29.89067 -2.97466,1.56266 -6.23466,2.42666 -9.48933,2.42666 H 42.103999 c -3.374667,-0.005 -6.634667,-0.86933 -9.494666,-2.43733 -12.437334,-7.02533 -22.7493332,-17.344 -29.7759997,-29.896 -1.5626667,-2.97867 -2.42666664,-6.23333 -2.54666664,-9.48933 z"
           id="path67"
           style="stroke-width:1.77777" />
      </g>
    </clipPath>
    <clipPath
       clipPathUnits="userSpaceOnUse"
       id="clipPath67">
      <g
         id="g68"
         style="stroke-width:1.33333"
         transform="scale(0.75000002)">
        <path
           d="m 0.28666666,41.983999 c 0.12,-3.254667 0.98399994,-6.514667 2.55199994,-9.5 C 9.8693331,19.932 20.182666,9.6199998 32.614666,2.5933333 c 2.858666,-1.5626667 6.12,-2.42666664 9.494666,-2.42666664 H 149.63066 c 3.25467,0 6.50934,0.86399994 9.49467,2.43199994 12.55733,7.0319998 22.86933,17.3439994 29.896,29.8959994 1.56267,2.978666 2.42667,6.24 2.42667,9.494666 V 415.54666 c 0,3.26 -0.864,6.516 -2.43734,9.50533 -7.032,12.55733 -17.34933,22.86933 -29.896,29.89067 -2.97466,1.56266 -6.23466,2.42666 -9.48933,2.42666 H 42.103999 c -3.374667,-0.005 -6.634667,-0.86933 -9.494666,-2.43733 -12.437334,-7.02533 -22.7493332,-17.344 -29.7759997,-29.896 -1.5626667,-2.97867 -2.42666664,-6.23333 -2.54666664,-9.48933 z"
           id="path68"
           style="stroke-width:1.77777" />
      </g>
    </clipPath>
  </defs>
  <g
     inkscape:groupmode="layer"
     id="layer3"
     inkscape:label="Etch">
    <path
       id="path8"
       d="m 29.114666,240.21333 h -1.636 c -0.561333,0 -1.014667,0.484 -1.014667,1.07866 v 1.572 h -1.313333 v -1.572 c 0,-0.59466 -0.358667,-1.07866 -0.796,-1.07866 h -1.854667 v -1.312 h 1.817334 c 0.458666,0 0.833333,-0.344 0.833333,-0.76534 v -1.88533 h 1.313333 v 1.848 c 0,0.44267 0.421334,0.80267 0.937334,0.80267 h 1.713333 z"
       style="opacity:1;vector-effect:non-scaling-stroke;fill:none;fill-opacity:1;fill-rule:nonzero;stroke:#000000;stroke-width:1;stroke-dasharray:none;stroke-opacity:1;-inkscape-stroke:hairline"
       sodipodi:nodetypes="cssccssccssccsscc" />
    <path
       id="path12"
       d="m 61.197332,240.21333 h -1.64 c -0.557333,0 -1.016,0.484 -1.016,1.07866 v 1.572 h -1.306667 v -1.572 c 0,-0.59466 -0.365333,-1.07866 -0.802666,-1.07866 h -1.853334 v -1.312 h 1.817334 c 0.458666,0 0.838666,-0.344 0.838666,-0.76534 v -1.88533 h 1.306667 v 1.848 c 0,0.44267 0.428,0.80267 0.937333,0.80267 h 1.718667 z"
       style="opacity:1;vector-effect:non-scaling-stroke;fill:none;fill-opacity:1;fill-rule:nonzero;stroke:#000000;stroke-width:1;stroke-dasharray:none;stroke-opacity:1;-inkscape-stroke:hairline"
       sodipodi:nodetypes="cssccssccssccsscc" />
    <path
       id="path14"
       d="m 93.354664,240.21333 h -1.641333 c -0.557333,0 -1.010667,0.484 -1.010667,1.07866 v 1.572 h -1.312 v -1.572 c 0,-0.59466 -0.36,-1.07866 -0.797333,-1.07866 h -1.853333 v -1.312 h 1.817333 c 0.458667,0 0.833333,-0.344 0.833333,-0.76534 v -1.88533 h 1.312 v 1.848 c 0,0.44267 0.422667,0.80267 0.937334,0.80267 h 1.714666 z"
       style="opacity:1;vector-effect:non-scaling-stroke;fill:none;fill-opacity:1;fill-rule:nonzero;stroke:#000000;stroke-width:1;stroke-dasharray:none;stroke-opacity:1;-inkscape-stroke:hairline"
       sodipodi:nodetypes="cssccssccssccsscc" />
    <path
       id="path16"
       d="m 45.114666,174.068 h -6.614667 v -1.31334 h 6.614667 z"
       style="opacity:1;vector-effect:non-scaling-stroke;fill:none;fill-opacity:1;fill-rule:nonzero;stroke:#000000;stroke-width:1;stroke-dasharray:none;stroke-opacity:1;-inkscape-stroke:hairline"
       sodipodi:nodetypes="ccccc" />
    <path
       id="path18"
       d="m 77.275998,174.068 h -6.614666 v -1.31334 h 6.614666 z"
       style="opacity:1;vector-effect:non-scaling-stroke;fill:none;fill-opacity:1;fill-rule:nonzero;stroke:#000000;stroke-width:1;stroke-dasharray:none;stroke-opacity:1;-inkscape-stroke:hairline"
       sodipodi:nodetypes="ccccc" />
    <path
       id="path22"
       d="m 44.885998,308.13066 -3.078666,-1.78133 -3.077334,1.78133 -0.578666,-1.00533 3.078666,-1.776 v -3.55734 h 1.156 v 3.55734 l 3.077334,1.776 z"
       style="opacity:1;vector-effect:non-scaling-stroke;fill:none;fill-opacity:1;fill-rule:nonzero;stroke:#000000;stroke-width:1;stroke-dasharray:none;stroke-opacity:1;-inkscape-stroke:hairline"
       sodipodi:nodetypes="cccccccccc" />
    <path
       id="path27"
       d="m 77.046665,308.13066 -3.082667,-1.78133 -3.078666,1.78133 -0.578667,-1.00533 3.078666,-1.776 v -3.55734 h 1.156 v 3.55734 l 3.084,1.776 z"
       style="opacity:1;vector-effect:non-scaling-stroke;fill:none;fill-opacity:1;fill-rule:nonzero;stroke:#000000;stroke-width:1;stroke-dasharray:none;stroke-opacity:1;-inkscape-stroke:hairline"
       sodipodi:nodetypes="cccccccccc" />
    <path
       id="path30"
       d="m 28.390666,372.82266 c 0.396,0.53733 0.177333,0.91733 -0.484,0.844 -0.661333,-0.0733 -1.422667,0.36933 -1.693333,0.97333 -0.265334,0.61067 -0.708,0.61067 -0.973334,0 -0.270666,-0.604 -1.032,-1.04667 -1.693333,-0.97333 -0.661333,0.0733 -0.88,-0.30667 -0.484,-0.844 0.390667,-0.536 0.390667,-1.416 0,-1.95334 -0.396,-0.54133 -0.177333,-0.92133 0.484,-0.848 0.661333,0.072 1.422667,-0.37066 1.693333,-0.97466 0.265334,-0.60934 0.708,-0.60934 0.973334,0 0.270666,0.604 1.032,1.04666 1.693333,0.97466 0.661333,-0.0733 0.88,0.30667 0.484,0.848 -0.390667,0.53734 -0.390667,1.41734 0,1.95334"
       style="opacity:1;vector-effect:non-scaling-stroke;fill:none;fill-opacity:1;fill-rule:nonzero;stroke:#000000;stroke-width:1;stroke-dasharray:none;stroke-opacity:1;-inkscape-stroke:hairline"
       sodipodi:nodetypes="csccscccccccc" />
    <path
       id="path33"
       d="m 60.551998,372.82266 c 0.390667,0.53733 0.172,0.91733 -0.484,0.844 -0.661333,-0.0733 -1.422666,0.36933 -1.693333,0.97333 -0.270666,0.61067 -0.708,0.61067 -0.973333,0 -0.270667,-0.604 -1.032,-1.04667 -1.693333,-0.97333 -0.661334,0.0733 -0.88,-0.30667 -0.489334,-0.844 0.396,-0.536 0.396,-1.416 0,-1.95334 -0.390666,-0.54133 -0.172,-0.92133 0.489334,-0.848 0.661333,0.072 1.422666,-0.37066 1.693333,-0.97466 0.265333,-0.60934 0.702667,-0.60934 0.973333,0 0.270667,0.604 1.032,1.04666 1.693333,0.97466 0.656,-0.0733 0.874667,0.30667 0.484,0.848 -0.390666,0.53734 -0.390666,1.41734 0,1.95334"
       style="opacity:1;vector-effect:non-scaling-stroke;fill:none;fill-opacity:1;fill-rule:nonzero;stroke:#000000;stroke-width:1;stroke-dasharray:none;stroke-opacity:1;-inkscape-stroke:hairline"
       sodipodi:nodetypes="ccccscccccccc" />
    <path
       id="path36"
       d="m 92.707998,372.82266 c 0.396,0.53733 0.177333,0.91733 -0.484,0.844 -0.661334,-0.0733 -1.417334,0.36933 -1.688,0.97333 -0.270667,0.61067 -0.713334,0.61067 -0.978667,0 -0.265333,-0.604 -1.030667,-1.04667 -1.688,-0.97333 -0.661333,0.0733 -0.88,-0.30667 -0.489333,-0.844 0.396,-0.536 0.396,-1.416 0,-1.95334 -0.390667,-0.54133 -0.172,-0.92133 0.489333,-0.848 0.657333,0.072 1.422667,-0.37066 1.688,-0.97466 0.265333,-0.60934 0.708,-0.60934 0.978667,0 0.270666,0.604 1.026666,1.04666 1.688,0.97466 0.661333,-0.0733 0.88,0.30667 0.484,0.848 -0.390667,0.53734 -0.390667,1.41734 0,1.95334"
       style="opacity:1;vector-effect:non-scaling-stroke;fill:none;fill-opacity:1;fill-rule:nonzero;stroke:#000000;stroke-width:1;stroke-dasharray:none;stroke-opacity:1;-inkscape-stroke:hairline"
       sodipodi:nodetypes="csccccccccccc" />
    <path
       id="path43"
       d="m 108.792,438.96399 c 0.396,0.54133 0.17733,0.92133 -0.48534,0.848 -0.66133,-0.072 -1.42133,0.36533 -1.692,0.97467 -0.27066,0.60933 -0.708,0.60933 -0.97866,0 -0.26667,-0.60934 -1.032,-1.04667 -1.688,-0.97467 -0.66134,0.0733 -0.88,-0.30667 -0.484,-0.848 0.39066,-0.53733 0.39066,-1.41733 0,-1.95333 -0.396,-0.53734 -0.17734,-0.91734 0.484,-0.84934 0.656,0.0733 1.42133,-0.364 1.688,-0.97333 0.27066,-0.60933 0.708,-0.60933 0.97866,0 0.27067,0.60933 1.03067,1.04667 1.692,0.97333 0.66267,-0.068 0.88134,0.312 0.48534,0.84934 -0.396,0.536 -0.396,1.416 0,1.95333"
       style="opacity:1;vector-effect:non-scaling-stroke;fill:none;fill-opacity:1;fill-rule:nonzero;stroke:#000000;stroke-width:1;stroke-dasharray:none;stroke-opacity:1;-inkscape-stroke:hairline"
       sodipodi:nodetypes="ccsccccccsccc" />
    <path
       id="path44"
       d="m 106.12533,436.84932 c -0.62533,0 -1.136,0.51067 -1.136,1.14 0,0.62534 0.51067,1.13067 1.136,1.13067 0.62933,0 1.13467,-0.50533 1.13467,-1.13067 0,-0.62933 -0.50534,-1.14 -1.13467,-1.14"
       style="opacity:1;fill:none;fill-opacity:1;fill-rule:nonzero;stroke:#000000;stroke-width:1;stroke-opacity:1;vector-effect:non-scaling-stroke;-inkscape-stroke:hairline;stroke-dasharray:none" />
    <path
       id="path48"
       d="m 44.473332,438.96399 c 0.390667,0.54133 0.172,0.92133 -0.489333,0.848 -0.661333,-0.072 -1.421333,0.36533 -1.686667,0.97467 -0.270666,0.60933 -0.709333,0.60933 -0.98,0 -0.270666,-0.60934 -1.030666,-1.04667 -1.686666,-0.97467 -0.661334,0.0733 -0.885334,-0.30667 -0.490667,-0.848 0.390667,-0.53733 0.390667,-1.41733 0,-1.95333 -0.394667,-0.53734 -0.170667,-0.91734 0.490667,-0.84934 0.656,0.0733 1.416,-0.364 1.686666,-0.97333 0.270667,-0.60933 0.709334,-0.60933 0.98,0 0.265334,0.60933 1.025334,1.04667 1.686667,0.97333 0.661333,-0.068 0.88,0.312 0.489333,0.84934 -0.394666,0.536 -0.394666,1.416 0,1.95333"
       style="opacity:1;vector-effect:non-scaling-stroke;fill:none;fill-opacity:1;fill-rule:nonzero;stroke:#000000;stroke-width:1;stroke-dasharray:none;stroke-opacity:1;-inkscape-stroke:hairline"
       sodipodi:nodetypes="cccsccccscccc" />
    <path
       id="path49"
       d="m 41.806666,436.84932 c -0.629334,0 -1.134667,0.51067 -1.134667,1.14 0,0.62534 0.505333,1.13067 1.134667,1.13067 0.625333,0 1.136,-0.50533 1.136,-1.13067 0,-0.62933 -0.510667,-1.14 -1.136,-1.14"
       style="opacity:1;fill:none;fill-opacity:1;fill-rule:nonzero;stroke:#000000;stroke-width:1;stroke-opacity:1;vector-effect:non-scaling-stroke;-inkscape-stroke:hairline;stroke-dasharray:none" />
    <path
       id="path53"
       d="m 76.609331,438.96399 c 0.396,0.54133 0.177334,0.92133 -0.484,0.848 -0.661333,-0.072 -1.422666,0.36533 -1.693333,0.97467 -0.265333,0.60933 -0.708,0.60933 -0.973333,0 -0.270667,-0.60934 -1.032,-1.04667 -1.693333,-0.97467 -0.661334,0.0733 -0.88,-0.30667 -0.484,-0.848 0.390666,-0.53733 0.390666,-1.41733 0,-1.95333 -0.396,-0.53734 -0.177334,-0.91734 0.484,-0.84934 0.661333,0.0733 1.422666,-0.364 1.693333,-0.97333 0.265333,-0.60933 0.708,-0.60933 0.973333,0 0.270667,0.60933 1.032,1.04667 1.693333,0.97333 0.661334,-0.068 0.88,0.312 0.484,0.84934 -0.390666,0.536 -0.390666,1.416 0,1.95333"
       style="opacity:1;vector-effect:non-scaling-stroke;fill:none;fill-opacity:1;fill-rule:nonzero;stroke:#000000;stroke-width:1;stroke-dasharray:none;stroke-opacity:1;-inkscape-stroke:hairline"
       sodipodi:nodetypes="ccccccccccccc" />
    <path
       id="path54"
       d="m 73.947998,436.84932 c -0.630666,0 -1.141333,0.51067 -1.141333,1.14 0,0.62534 0.510667,1.13067 1.141333,1.13067 0.625333,0 1.136,-0.50533 1.136,-1.13067 0,-0.62933 -0.510667,-1.14 -1.136,-1.14"
       style="opacity:1;fill:none;fill-opacity:1;fill-rule:nonzero;stroke:#000000;stroke-width:1;stroke-opacity:1;vector-effect:non-scaling-stroke;-inkscape-stroke:hairline;stroke-dasharray:none" />
    <path
       id="path55"
       d="m 26.130666,104.084 0.390667,1.04666 c 0.166666,0.45334 0.702666,0.848 1.186666,0.88 l 1.114667,0.0733 c 0.484,0.0307 0.573333,0.30133 0.193333,0.604 l -0.876,0.69733 c -0.38,0.30267 -0.588,0.932 -0.468,1.40133 l 0.276,1.08267 c 0.12,0.46933 -0.114666,0.636 -0.521333,0.37067 l -0.932,-0.61467 c -0.401333,-0.26533 -1.068,-0.276 -1.478667,-0.016 l -0.942666,0.59867 c -0.412,0.256 -0.641334,0.0893 -0.510667,-0.38 l 0.297333,-1.07734 c 0.129334,-0.46933 -0.068,-1.10533 -0.442666,-1.412 l -0.86,-0.71333 c -0.374667,-0.308 -0.281334,-0.57867 0.202666,-0.59867 l 1.114667,-0.0533 c 0.485333,-0.02 1.026667,-0.40533 1.209333,-0.85867 l 0.410667,-1.036 c 0.177333,-0.45333 0.464,-0.448 0.636,0.005"
       style="opacity:1;vector-effect:non-scaling-stroke;fill:none;fill-opacity:1;fill-rule:nonzero;stroke:#000000;stroke-width:1;stroke-dasharray:none;stroke-opacity:1;-inkscape-stroke:hairline"
       sodipodi:nodetypes="ccccccccccccccccccccc" />
    <path
       id="path58"
       d="m 58.286665,104.084 0.390667,1.04666 c 0.172,0.45334 0.708,0.848 1.192,0.88 l 1.114666,0.0733 c 0.485334,0.0307 0.568,0.30133 0.188,0.604 l -0.869333,0.69733 c -0.381333,0.30267 -0.594666,0.932 -0.474666,1.40133 l 0.275999,1.08267 c 0.12,0.46933 -0.109333,0.636 -0.515999,0.37067 l -0.932,-0.61467 c -0.405334,-0.26533 -1.072,-0.276 -1.478667,-0.016 l -0.948,0.59867 c -0.406667,0.256 -0.636,0.0893 -0.510667,-0.38 l 0.302667,-1.07734 c 0.129333,-0.46933 -0.07333,-1.10533 -0.448,-1.412 l -0.86,-0.71333 c -0.369333,-0.308 -0.281333,-0.57867 0.204,-0.59867 l 1.113333,-0.0533 c 0.485334,-0.02 1.032,-0.40533 1.209334,-0.85867 l 0.410666,-1.036 c 0.182667,-0.45333 0.464,-0.448 0.636,0.005"
       style="opacity:1;vector-effect:non-scaling-stroke;fill:none;fill-opacity:1;fill-rule:nonzero;stroke:#000000;stroke-width:1;stroke-dasharray:none;stroke-opacity:1;-inkscape-stroke:hairline"
       sodipodi:nodetypes="ccccccccccccccccccccc" />
    <g
       id="g81">
      <path
         id="path63"
         d="m 89.489331,102.54133 v 4.10933 h -4.098666 c 0.249333,-2.15066 1.947999,-3.85333 4.098666,-4.10933"
         style="opacity:1;fill:none;fill-opacity:1;fill-rule:nonzero;stroke:#000000;stroke-width:1;stroke-opacity:1;vector-effect:non-scaling-stroke;-inkscape-stroke:hairline;stroke-dasharray:none" />
      <path
         id="path64"
         d="m 94.702664,106.65066 h -4.109333 v -4.10933 c 2.152,0.256 3.854667,1.95867 4.109333,4.10933"
         style="opacity:1;fill:none;fill-opacity:1;fill-rule:nonzero;stroke:#000000;stroke-width:1;stroke-opacity:1;vector-effect:non-scaling-stroke;-inkscape-stroke:hairline;stroke-dasharray:none" />
      <path
         id="path65"
         d="m 89.489331,107.74 v 4.11466 c -2.150667,-0.25066 -3.858666,-1.948 -4.098666,-4.11466 z"
         style="opacity:1;fill:none;fill-opacity:1;fill-rule:nonzero;stroke:#000000;stroke-width:1;stroke-opacity:1;vector-effect:non-scaling-stroke;-inkscape-stroke:hairline;stroke-dasharray:none" />
      <path
         id="path66"
         d="m 94.702664,107.74 c -0.244,2.16666 -1.957333,3.864 -4.109333,4.11466 V 107.74 Z"
         style="opacity:1;fill:none;fill-opacity:1;fill-rule:nonzero;stroke:#000000;stroke-width:1;stroke-opacity:1;vector-effect:non-scaling-stroke;-inkscape-stroke:hairline;stroke-dasharray:none" />
    </g>
    <g
       stroke-linecap="round"
       stroke-linejoin="round"
       stroke-width="4.3158e-07"
       id="g7985"
       style="display:inline;vector-effect:non-scaling-stroke;fill:none;stroke:#000000;stroke-width:0.750026;stroke-dasharray:none;stroke-opacity:1;-inkscape-stroke:hairline"
       transform="matrix(1.33329 0 0 -1.33329 -297.095 263.346)">
      <path
         d="m 238.9,111.78 v -4.0423 m 0,4.0423 h 1.7341 l 0.57398,-0.1954 0.1954,-0.1954 0.19539,-0.37858 v -0.58008 l -0.19539,-0.38469 -0.1954,-0.1954 -0.57398,-0.18929 H 238.9"
         vector-effect="non-scaling-stroke"
         style="vector-effect:non-scaling-stroke;fill:none;stroke:#000000;stroke-width:0.750026;stroke-dasharray:none;stroke-opacity:1;-inkscape-stroke:hairline"
         id="path7981" />
      <path
         d="m 242.94,110.82 v 0.19539 l 0.1954,0.37858 0.1954,0.1954 0.37858,0.1954 h 0.76937 l 0.3908,-0.1954 0.18929,-0.1954 0.18929,-0.37858 v -0.39079 l -0.18929,-0.37858 -0.38469,-0.58009 -1.9234,-1.9234 h 2.6928"
         vector-effect="non-scaling-stroke"
         style="vector-effect:non-scaling-stroke;fill:none;stroke:#000000;stroke-width:0.750026;stroke-dasharray:none;stroke-opacity:1;-inkscape-stroke:hairline"
         id="path7983" />
    </g>
    <g
       stroke-linecap="round"
       stroke-linejoin="round"
       stroke-width="4.3158e-07"
       id="g7991"
       style="display:inline;vector-effect:non-scaling-stroke;fill:none;stroke:#000000;stroke-width:0.750026;stroke-dasharray:none;stroke-opacity:1;-inkscape-stroke:hairline"
       transform="matrix(1.33329 0 0 -1.33329 -296.376 263.343)">
      <path
         d="m 262.48,111.78 v -4.0423 m 0,4.0423 h 1.7341 l 0.57397,-0.19539 0.19541,-0.19539 0.19539,-0.37858 v -0.58009 l -0.19539,-0.38469 -0.19541,-0.1954 -0.57397,-0.18929 H 262.48"
         vector-effect="non-scaling-stroke"
         style="vector-effect:non-scaling-stroke;fill:none;stroke:#000000;stroke-width:0.750026;stroke-dasharray:none;stroke-opacity:1;-inkscape-stroke:hairline"
         id="path7987" />
      <path
         d="m 268.64,111.78 h -1.9234 l -0.1954,-1.7341 0.1954,0.1954 0.57397,0.18929 h 0.58009 l 0.58008,-0.18929 0.37858,-0.3908 0.19541,-0.57398 v -0.38468 l -0.19541,-0.57704 -0.37858,-0.38468 -0.58008,-0.19235 h -0.58009 l -0.57397,0.19235 -0.1954,0.19234 -0.18929,0.38468"
         vector-effect="non-scaling-stroke"
         style="vector-effect:non-scaling-stroke;fill:none;stroke:#000000;stroke-width:0.750026;stroke-dasharray:none;stroke-opacity:1;-inkscape-stroke:hairline"
         id="path7989" />
    </g>
  </g>
  <g
     inkscape:groupmode="layer"
     id="layer1"
     inkscape:label="Cut"
     style="display:inline">
    <path
       id="rect68"
       style="opacity:1;vector-effect:non-scaling-stroke;fill:none;stroke:#000000;stroke-linecap:round;stroke-linejoin:round;-inkscape-stroke:hairline;paint-order:stroke markers fill"
       d="m 53.190598,0 h 85.233812 c 29.46759,0 53.1906,23.723007 53.1906,53.190598 V 404.34441 c 0,29.46759 -23.72301,53.19059 -53.1906,53.19059 H 53.190598 C 23.723007,457.535 0,433.812 0,404.34441 V 53.190598 C 0,23.723007 23.723007,0 53.190598,0 Z" />
    <path
       id="path6"
       d="m 117.97333,174.64 -0.44667,0.48533 v 178.56266 l 0.77067,0.89067 c 2.71333,6.4 5.124,12.97866 7.208,19.69733 l 1.38,0.052 v 73.43733 l 1.92133,2.16134 h 26.16267 l 2.156,-2.16134 v -73.43733 l 1.39067,-0.0773 c 2.09333,-6.74534 4.5,-13.324 7.21333,-19.69867 l 0.76,-0.864 V 175.12533 l -0.448,-0.51067 c 0.328,-12.96933 1.57333,-25.86933 3.66667,-38.68266 0.0427,-0.90534 0.12,-1.76534 0.256,-2.59334 l 1.32266,-74.369328 v -0.24 l 0.35867,-18.198666 c 0.13067,-0.342667 0.26133,-0.724 0.43333,-1.014667 l 0.89467,-1.437333 c 0.74,-0.948 1.15733,-2.105334 1.19333,-3.204 l 0.24,-12.604 c 0.036,-1.166667 -0.31333,-2.344 -0.97466,-3.358666 l -3.35867,-5.037334 c -1.068,-1.510666 -2.808,-2.426666 -4.604,-2.426666 h -47.04267 c -1.916,0 -3.66133,0.916 -4.724,2.421333 L 110.344,18.912 c -0.66667,1.009333 -1.01067,2.186666 -0.97467,3.358666 l 0.48,12.604 c 0.036,1.098666 0.45333,2.250666 1.192,3.204 l 0.896,1.437333 c 0.172,0.290667 0.30267,0.672 0.308,1.014667 l 0.484,18.198666 v 0.24 l 1.31733,74.363998 c 0.136,0.828 0.21867,1.688 0.26534,2.62533 2.09466,12.83867 3.33866,25.73867 3.66133,38.68134 z"
       style="opacity:1;vector-effect:non-scaling-stroke;fill:none;fill-opacity:1;fill-rule:nonzero;stroke:#000000;stroke-width:1;stroke-dasharray:none;stroke-opacity:1;-inkscape-stroke:hairline" />
    <path
       style="opacity:1;vector-effect:non-scaling-stroke;fill:none;fill-opacity:1;fill-rule:nonzero;stroke:#000000;stroke-width:1;stroke-dasharray:none;stroke-opacity:1;-inkscape-stroke:hairline"
       d="m 73.963998,374.56799 c -4.709333,0 -8.521333,3.812 -8.521333,8.45867 l 0.0053,39.71866 c 0,4.64534 3.812,8.46267 8.516,8.46267 4.708,0 8.52,-3.812 8.525333,-8.45733 l -0.0053,-39.724 c -0.0053,-4.64134 -3.817333,-8.45867 -8.52,-8.45867 z"
       id="path138" />
    <path
       style="opacity:1;vector-effect:non-scaling-stroke;fill:none;fill-opacity:1;fill-rule:nonzero;stroke:#000000;stroke-width:1;stroke-dasharray:none;stroke-opacity:1;-inkscape-stroke:hairline"
       d="m 17.208,52.306665 c 0,-4.645333 3.813333,-8.457333 8.521333,-8.457333 4.702666,0 8.515999,3.812 8.515999,8.457333 v 39.719999 c 0,4.645334 -3.813333,8.462666 -8.521333,8.462666 C 21.021333,100.484 17.208,96.671998 17.208,92.026664 Z"
       id="path137" />
    <path
       style="opacity:1;vector-effect:non-scaling-stroke;fill:none;fill-opacity:1;fill-rule:nonzero;stroke:#000000;stroke-width:1;stroke-dasharray:none;stroke-opacity:1;-inkscape-stroke:hairline"
       d="m 98.567998,92.026664 c 0,4.645334 -3.817334,8.462666 -8.521334,8.462666 -4.707999,-0.005 -8.519999,-3.817332 -8.519999,-8.462666 l -0.0053,-39.719999 c -0.01067,-4.645333 3.806667,-8.462666 8.509333,-8.457333 4.709334,0 8.521334,3.812 8.526667,8.457333 z"
       id="path136" />
    <path
       style="opacity:1;vector-effect:non-scaling-stroke;fill:none;fill-opacity:1;fill-rule:nonzero;stroke:#000000;stroke-width:1;stroke-dasharray:none;stroke-opacity:1;-inkscape-stroke:hairline"
       d="m 73.963998,166.72933 c -4.704,-0.005 -8.516,-3.81733 -8.516,-8.584 v -39.71867 c 0,-4.76533 3.812,-8.57733 8.521333,-8.57733 4.702667,0 8.52,3.812 8.52,8.57733 v 39.71867 c -0.0053,4.772 -3.817333,8.584 -8.525333,8.584 z"
       id="path135" />
    <path
       style="opacity:1;vector-effect:non-scaling-stroke;fill:none;fill-opacity:1;fill-rule:nonzero;stroke:#000000;stroke-width:1;stroke-dasharray:none;stroke-opacity:1;-inkscape-stroke:hairline"
       d="m 57.885332,176.088 c 4.708,0 8.521333,3.81333 8.521333,8.57866 v 39.59867 c 0,4.652 -3.813333,8.464 -8.521333,8.464 -4.702667,0 -8.521333,-3.81734 -8.516,-8.464 v -39.59867 c 0,-4.76533 3.813333,-8.57866 8.516,-8.57866 z"
       id="path134" />
    <path
       style="opacity:1;vector-effect:non-scaling-stroke;fill:none;fill-opacity:1;fill-rule:nonzero;stroke:#000000;stroke-width:1;stroke-dasharray:none;stroke-opacity:1;-inkscape-stroke:hairline"
       d="m 41.806666,298.96933 c -4.708,0 -8.52,-3.81867 -8.52,-8.584 v -39.59867 c 0,-4.64667 3.817333,-8.45867 8.52,-8.45867 4.704,0 8.521333,3.812 8.521333,8.45867 v 39.604 c 0,4.76533 -3.817333,8.57867 -8.521333,8.57867 z"
       id="path133" />
    <path
       style="opacity:1;vector-effect:non-scaling-stroke;fill:none;fill-opacity:1;fill-rule:nonzero;stroke:#000000;stroke-width:1;stroke-dasharray:none;stroke-opacity:1;-inkscape-stroke:hairline"
       d="m 34.245332,316.90666 c 0,-4.76667 -3.813333,-8.57867 -8.515999,-8.57867 -4.708,0 -8.521333,3.812 -8.521333,8.57867 v 39.71866 c 0,4.76534 3.813333,8.58267 8.515999,8.58267 4.708,0 8.521333,-3.812 8.521333,-8.57733 z"
       id="path132" />
    <path
       style="opacity:1;vector-effect:non-scaling-stroke;fill:none;fill-opacity:1;fill-rule:nonzero;stroke:#000000;stroke-width:1;stroke-dasharray:none;stroke-opacity:1;-inkscape-stroke:hairline"
       d="m 98.567998,316.90666 c 0,-4.76667 -3.813334,-8.57867 -8.521334,-8.57867 -4.702666,0 -8.519999,3.812 -8.519999,8.57867 v 39.71866 c 0,4.76534 3.812,8.58267 8.519999,8.58267 4.704,0 8.521334,-3.812 8.521334,-8.57733 z"
       id="path131" />
    <path
       style="opacity:1;vector-effect:non-scaling-stroke;fill:none;fill-opacity:1;fill-rule:nonzero;stroke:#000000;stroke-width:1;stroke-dasharray:none;stroke-opacity:1;-inkscape-stroke:hairline"
       d="m 114.64533,422.75066 c 0,4.64533 -3.812,8.45733 -8.52,8.45733 -4.704,0 -8.515999,-3.81733 -8.515999,-8.46267 l -0.0053,-39.71866 c -0.0053,-4.64667 3.813329,-8.45867 8.515999,-8.45867 4.708,0 8.52,3.81733 8.52,8.45867 z"
       id="path130" />
    <path
       style="opacity:1;vector-effect:non-scaling-stroke;fill:none;fill-opacity:1;fill-rule:nonzero;stroke:#000000;stroke-width:1;stroke-dasharray:none;stroke-opacity:1;-inkscape-stroke:hairline"
       d="m 33.286666,383.02666 c 0,-4.64667 3.817333,-8.45867 8.52,-8.45867 4.704,0 8.521333,3.812 8.521333,8.45867 v 39.724 c 0,4.64533 -3.817333,8.45733 -8.521333,8.45733 -4.708,0 -8.52,-3.81733 -8.52,-8.46267 z"
       id="path129" />
    <path
       style="opacity:1;vector-effect:non-scaling-stroke;fill:none;fill-opacity:1;fill-rule:nonzero;stroke:#000000;stroke-width:1;stroke-dasharray:none;stroke-opacity:1;-inkscape-stroke:hairline"
       d="m 57.885332,365.20799 c -4.702667,0 -8.521333,-3.81733 -8.516,-8.58267 v -39.71866 c 0,-4.76667 3.813333,-8.57867 8.516,-8.57867 4.708,0 8.521333,3.812 8.521333,8.57867 v 39.724 c 0,4.76533 -3.813333,8.57733 -8.521333,8.57733 z"
       id="path128" />
    <path
       style="opacity:1;vector-effect:non-scaling-stroke;fill:none;fill-opacity:1;fill-rule:nonzero;stroke:#000000;stroke-width:1;stroke-dasharray:none;stroke-opacity:1;-inkscape-stroke:hairline"
       d="m 82.489331,290.39066 c -0.0053,4.76533 -3.817333,8.57867 -8.525333,8.57867 -4.704,0 -8.516,-3.81867 -8.516,-8.584 l -0.0053,-39.59867 c -0.0053,-4.64667 3.808,-8.45867 8.516,-8.45867 4.702666,0 8.514666,3.81734 8.52,8.45867 z"
       id="path127" />
    <path
       style="opacity:1;vector-effect:non-scaling-stroke;fill:none;fill-opacity:1;fill-rule:nonzero;stroke:#000000;stroke-width:1;stroke-dasharray:none;stroke-opacity:1;-inkscape-stroke:hairline"
       d="m 90.046664,176.088 c 4.708,0 8.521334,3.81333 8.521334,8.57866 v 39.59867 c 0,4.652 -3.817334,8.464 -8.521334,8.464 -4.707999,0 -8.519999,-3.81734 -8.519999,-8.464 v -39.59867 c 0,-4.76533 3.817333,-8.57866 8.519999,-8.57866 z"
       id="path126" />
    <path
       style="opacity:1;vector-effect:non-scaling-stroke;fill:none;fill-opacity:1;fill-rule:nonzero;stroke:#000000;stroke-width:1;stroke-dasharray:none;stroke-opacity:1;-inkscape-stroke:hairline"
       d="m 25.729333,176.088 c 4.702666,0 8.515999,3.81333 8.515999,8.57866 v 39.59867 c 0,4.652 -3.813333,8.464 -8.521333,8.464 -4.702666,0 -8.515999,-3.81734 -8.515999,-8.464 v -39.59867 c 0,-4.76533 3.813333,-8.57866 8.521333,-8.57866 z"
       id="path125" />
    <path
       style="opacity:1;vector-effect:non-scaling-stroke;fill:none;fill-opacity:1;fill-rule:nonzero;stroke:#000000;stroke-width:1;stroke-dasharray:none;stroke-opacity:1;-inkscape-stroke:hairline"
       d="m 41.806666,166.72933 c -4.708,0 -8.52,-3.81733 -8.52,-8.584 v -39.71867 c 0,-4.76533 3.817333,-8.57733 8.52,-8.57733 4.704,0 8.521333,3.812 8.521333,8.57733 v 39.71867 c 0,4.772 -3.817333,8.584 -8.521333,8.584 z"
       id="path124" />
    <path
       style="opacity:1;vector-effect:non-scaling-stroke;fill:none;fill-opacity:1;fill-rule:nonzero;stroke:#000000;stroke-width:1;stroke-dasharray:none;stroke-opacity:1;-inkscape-stroke:hairline"
       d="m 49.369332,52.306665 c 0,-4.645333 3.813333,-8.457333 8.516,-8.457333 4.708,0 8.521333,3.812 8.521333,8.457333 v 39.719999 c 0,4.645334 -3.813333,8.462666 -8.521333,8.462666 -4.702667,-0.005 -8.521333,-3.817332 -8.516,-8.462666 z"
       id="path7" />
  </g>
  <g
     inkscape:label="Hershey Text"
     style="vector-effect:non-scaling-stroke;fill:none;stroke:#000000;stroke-width:2.92125;stroke-linecap:round;stroke-linejoin:round;stroke-dasharray:none;-inkscape-stroke:hairline"
     id="g80"
     transform="matrix(0.34449779,0,0,0.34015541,49.448575,69.682309)">
    <g
       transform="translate(99.7515,145.464)"
       id="g79"
       style="vector-effect:non-scaling-stroke;stroke-width:2.92125;stroke-dasharray:none;-inkscape-stroke:hairline">
      <path
         d="m 630,567 -63,63 -95,32 H 346 l -94,-32 -63,-63 v -63 l 31,-63 32,-31 63,-32 189,-63 63,-31 31,-32 32,-63 V 94.5 L 567,31.5 472,0 H 346 l -94,31.5 -63,63"
         style="vector-effect:non-scaling-stroke;stroke-width:122.044;stroke-dasharray:none;-inkscape-stroke:hairline"
         transform="scale(0.0239361,-0.0239361)"
         id="path78" />
      <path
         d="M 378,662 315,630 252,567 220,504 189,410 V 252 l 31,-94 32,-63.5 63,-63 L 378,0 h 126 l 63,31.5 63,63 32,63.5 31,94 v 158 l -31,94 -32,63 -63,63 -63,32 H 378"
         style="vector-effect:non-scaling-stroke;stroke-width:122.044;stroke-dasharray:none;-inkscape-stroke:hairline"
         transform="matrix(0.0239361,0,0,-0.0239361,15.0797,0)"
         id="path79" />
    </g>
  </g>
  <g
     transform="matrix(0.30633521,0,0,0.34015541,39.149312,185.84033)"
     id="g93"
     style="vector-effect:non-scaling-stroke;fill:none;stroke:#000000;stroke-width:3.09787;stroke-linecap:round;stroke-linejoin:round;stroke-dasharray:none;-inkscape-stroke:hairline">
    <path
       d="m 284,536 62,31 95,95 V 0"
       style="vector-effect:non-scaling-stroke;stroke-width:129.423;stroke-dasharray:none;-inkscape-stroke:hairline"
       transform="scale(0.0239361,-0.0239361)"
       id="path93" />
  </g>
  <g
     transform="matrix(0.34540891,0,0,0.34015541,66.936957,185.84033)"
     id="g96"
     style="vector-effect:non-scaling-stroke;fill:none;stroke:#000000;stroke-width:2.91739;stroke-linecap:round;stroke-linejoin:round;stroke-dasharray:none;-inkscape-stroke:hairline">
    <path
       d="m 220,504 v 32 l 32,62 32,32 62,32 h 126 l 64,-32 31,-32 31,-62 V 472 L 567,410 504,315 189,0 h 441"
       style="vector-effect:non-scaling-stroke;stroke-width:121.882;stroke-dasharray:none;-inkscape-stroke:hairline"
       transform="scale(0.0239361,-0.0239361)"
       id="path94" />
    <path
       d="m 220,158 -31,-32 31,-31.5 32,31.5 -32,32"
       style="vector-effect:non-scaling-stroke;stroke-width:121.882;stroke-dasharray:none;-inkscape-stroke:hairline"
       transform="matrix(0.0239361,0,0,-0.0239361,15.0797,0)"
       id="path95" />
    <path
       d="M 567,662 H 252 l -32,-284 32,32 94,31 h 95 l 95,-31 62,-64 32,-94 V 189 L 598,94.5 536,31.5 441,0 H 346 L 252,31.5 220,63 189,126"
       style="vector-effect:non-scaling-stroke;stroke-width:121.882;stroke-dasharray:none;-inkscape-stroke:hairline"
       transform="matrix(0.0239361,0,0,-0.0239361,21.1116,0)"
       id="path96" />
  </g>
  <g
     transform="matrix(0.34015541,0,0,0.34015541,17.343727,251.99432)"
     id="g99"
     style="vector-effect:non-scaling-stroke;fill:none;stroke:#000000;stroke-width:2.93983;stroke-linecap:round;stroke-linejoin:round;stroke-dasharray:none;-inkscape-stroke:hairline">
    <path
       d="M 378,662 284,630 220,536 189,378 V 284 L 220,126 284,31.5 378,0 h 63 l 95,31.5 62,94.5 32,158 v 94 l -32,158 -62,94 -95,32 h -63"
       style="vector-effect:non-scaling-stroke;stroke-width:122.82;stroke-dasharray:none;-inkscape-stroke:hairline"
       transform="scale(0.0239361,-0.0239361)"
       id="path97" />
    <path
       d="M 378,662 284,630 220,536 189,378 V 284 L 220,126 284,31.5 378,0 h 63 l 95,31.5 62,94.5 32,158 v 94 l -32,158 -62,94 -95,32 h -63"
       style="vector-effect:non-scaling-stroke;stroke-width:122.82;stroke-dasharray:none;-inkscape-stroke:hairline"
       transform="matrix(0.0239361,0,0,-0.0239361,15.0797,0)"
       id="path98" />
    <path
       d="M 378,662 284,630 220,536 189,378 V 284 L 220,126 284,31.5 378,0 h 63 l 95,31.5 62,94.5 32,158 v 94 l -32,158 -62,94 -95,32 h -63"
       style="vector-effect:non-scaling-stroke;stroke-width:122.82;stroke-dasharray:none;-inkscape-stroke:hairline"
       transform="matrix(0.0239361,0,0,-0.0239361,30.1595,0)"
       id="path99" />
  </g>
  <g
     transform="matrix(0.34015541,0,0,0.34015541,54.553852,252.5387)"
     id="g100"
     style="vector-effect:non-scaling-stroke;fill:none;stroke:#000000;stroke-width:2.93983;stroke-linecap:round;stroke-linejoin:round;stroke-dasharray:none;-inkscape-stroke:hairline">
    <path
       d="M 378,662 284,630 220,536 189,378 V 284 L 220,126 284,31.5 378,0 h 63 l 95,31.5 62,94.5 32,158 v 94 l -32,158 -62,94 -95,32 h -63"
       style="vector-effect:non-scaling-stroke;stroke-width:122.82;stroke-dasharray:none;-inkscape-stroke:hairline"
       transform="scale(0.0239361,-0.0239361)"
       id="path100" />
  </g>
  <g
     transform="matrix(0.34015541,0,0,0.34015541,87.095858,251.44993)"
     id="g101"
     style="vector-effect:non-scaling-stroke;fill:none;stroke:#000000;stroke-width:2.93983;stroke-linecap:round;stroke-linejoin:round;stroke-dasharray:none;-inkscape-stroke:hairline">
    <path
       d="m 284,536 62,31 95,95 V 0"
       style="vector-effect:non-scaling-stroke;stroke-width:122.82;stroke-dasharray:none;-inkscape-stroke:hairline"
       transform="scale(0.0239361,-0.0239361)"
       id="path101" />
  </g>
  <g
     transform="matrix(0.22161772,0,0,0.22161772,34.956354,317.19583)"
     id="g105"
     style="vector-effect:non-scaling-stroke;fill:none;stroke:#000000;stroke-width:4.51227;stroke-linecap:round;stroke-linejoin:round;stroke-dasharray:none;-inkscape-stroke:hairline">
    <path
       d="M 126,662 378,346 V 0 M 630,662 378,346"
       style="vector-effect:non-scaling-stroke;stroke-width:188.513;stroke-dasharray:none;-inkscape-stroke:hairline"
       transform="scale(0.0239361,-0.0239361)"
       id="path102" />
    <path
       d="M 378,662 284,630 220,536 189,378 V 284 L 220,126 284,31.5 378,0 h 63 l 95,31.5 62,94.5 32,158 v 94 l -32,158 -62,94 -95,32 h -63"
       style="vector-effect:non-scaling-stroke;stroke-width:188.513;stroke-dasharray:none;-inkscape-stroke:hairline"
       transform="matrix(0.0239361,0,0,-0.0239361,13.5718,0)"
       id="path103" />
    <path
       d="M 378,662 284,630 220,536 189,378 V 284 L 220,126 284,31.5 378,0 h 63 l 95,31.5 62,94.5 32,158 v 94 l -32,158 -62,94 -95,32 h -63"
       style="vector-effect:non-scaling-stroke;stroke-width:188.513;stroke-dasharray:none;-inkscape-stroke:hairline"
       transform="matrix(0.0239361,0,0,-0.0239361,28.6515,0)"
       id="path104" />
    <path
       d="M 378,662 284,630 220,536 189,378 V 284 L 220,126 284,31.5 378,0 h 63 l 95,31.5 62,94.5 32,158 v 94 l -32,158 -62,94 -95,32 h -63"
       style="vector-effect:non-scaling-stroke;stroke-width:188.513;stroke-dasharray:none;-inkscape-stroke:hairline"
       transform="matrix(0.0239361,0,0,-0.0239361,43.7313,0)"
       id="path105" />
  </g>
  <g
     transform="matrix(0.34015541,0,0,0.34015541,68.580064,318.13499)"
     id="g107"
     style="vector-effect:non-scaling-stroke;fill:none;stroke:#000000;stroke-width:2.93983;stroke-linecap:round;stroke-linejoin:round;stroke-dasharray:none;-inkscape-stroke:hairline">
    <path
       d="M 126,662 378,346 V 0 M 630,662 378,346"
       style="vector-effect:non-scaling-stroke;stroke-width:122.82;stroke-dasharray:none;-inkscape-stroke:hairline"
       transform="scale(0.0239361,-0.0239361)"
       id="path106" />
    <path
       d="M 378,662 284,630 220,536 189,378 V 284 L 220,126 284,31.5 378,0 h 63 l 95,31.5 62,94.5 32,158 v 94 l -32,158 -62,94 -95,32 h -63"
       style="vector-effect:non-scaling-stroke;stroke-width:122.82;stroke-dasharray:none;-inkscape-stroke:hairline"
       transform="matrix(0.0239361,0,0,-0.0239361,13.5718,0)"
       id="path107" />
  </g>
  <g
     transform="matrix(0.34015541,0,0,0.34015541,20.597209,384.27366)"
     id="g109"
     style="vector-effect:non-scaling-stroke;fill:none;stroke:#000000;stroke-width:2.93983;stroke-linecap:round;stroke-linejoin:round;stroke-dasharray:none;-inkscape-stroke:hairline">
    <path
       d="M 346,662 V 0 M 126,662 h 441"
       style="vector-effect:non-scaling-stroke;stroke-width:122.82;stroke-dasharray:none;-inkscape-stroke:hairline"
       transform="scale(0.0239361,-0.0239361)"
       id="path108" />
    <path
       d="M 252,662 H 598 L 410,410 h 94 l 63,-32 31,-32 32,-94 V 189 L 598,94.5 536,31.5 441,0 H 346 L 252,31.5 220,63 189,126"
       style="vector-effect:non-scaling-stroke;stroke-width:122.82;stroke-dasharray:none;-inkscape-stroke:hairline"
       transform="matrix(0.0239361,0,0,-0.0239361,12.0638,0)"
       id="path109" />
  </g>
  <g
     transform="matrix(0.34015541,0,0,0.34015541,52.625704,384.27366)"
     id="g111"
     style="vector-effect:non-scaling-stroke;fill:none;stroke:#000000;stroke-width:2.93983;stroke-linecap:round;stroke-linejoin:round;stroke-dasharray:none;-inkscape-stroke:hairline">
    <path
       d="M 346,662 V 0 M 126,662 h 441"
       style="vector-effect:non-scaling-stroke;stroke-width:122.82;stroke-dasharray:none;-inkscape-stroke:hairline"
       transform="scale(0.0239361,-0.0239361)"
       id="path110" />
    <path
       d="M 504,662 189,220 H 662 M 504,662 V 0"
       style="vector-effect:non-scaling-stroke;stroke-width:122.82;stroke-dasharray:none;-inkscape-stroke:hairline"
       transform="matrix(0.0239361,0,0,-0.0239361,12.0638,0)"
       id="path111" />
  </g>
  <g
     transform="matrix(0.34015541,0,0,0.34015541,84.916431,384.27366)"
     id="g113"
     style="vector-effect:non-scaling-stroke;fill:none;stroke:#000000;stroke-width:2.93983;stroke-linecap:round;stroke-linejoin:round;stroke-dasharray:none;-inkscape-stroke:hairline">
    <path
       d="M 346,662 V 0 M 126,662 h 441"
       style="vector-effect:non-scaling-stroke;stroke-width:122.82;stroke-dasharray:none;-inkscape-stroke:hairline"
       transform="scale(0.0239361,-0.0239361)"
       id="path112" />
    <path
       d="M 567,662 H 252 l -32,-284 32,32 94,31 h 95 l 95,-31 62,-64 32,-94 V 189 L 598,94.5 536,31.5 441,0 H 346 L 252,31.5 220,63 189,126"
       style="vector-effect:non-scaling-stroke;stroke-width:122.82;stroke-dasharray:none;-inkscape-stroke:hairline"
       transform="matrix(0.0239361,0,0,-0.0239361,12.0638,0)"
       id="path113" />
  </g>
  <g
     transform="matrix(0.34015541,0,0,0.34015541,33.982875,450.42432)"
     id="g116"
     style="vector-effect:non-scaling-stroke;fill:none;stroke:#000000;stroke-width:2.93983;stroke-linecap:round;stroke-linejoin:round;stroke-dasharray:none;-inkscape-stroke:hairline">
    <path
       d="M 346,662 V 0 M 126,662 h 441"
       style="vector-effect:non-scaling-stroke;stroke-width:122.82;stroke-dasharray:none;-inkscape-stroke:hairline"
       transform="scale(0.0239361,-0.0239361)"
       id="path114" />
    <path
       d="M 220,662 V 0 m 0,662 h 284 l 94,-32 32,-32 32,-62 V 472 L 630,410 598,378 504,346 H 220 M 441,346 662,0"
       style="vector-effect:non-scaling-stroke;stroke-width:122.82;stroke-dasharray:none;-inkscape-stroke:hairline"
       transform="matrix(0.0239361,0,0,-0.0239361,12.0638,0)"
       id="path115" />
    <path
       d="m 598,567 -31,63 -95,32 H 410 L 315,630 252,536 220,378 V 220 L 252,94.5 315,31.5 410,0 h 31 l 95,31.5 62,63 32,94.5 v 31 l -32,95 -62,63 -95,32 h -31 l -95,-32 -63,-63 -32,-95"
       style="vector-effect:non-scaling-stroke;stroke-width:122.82;stroke-dasharray:none;-inkscape-stroke:hairline"
       transform="matrix(0.0239361,0,0,-0.0239361,27.9095,0)"
       id="path116" />
  </g>
  <g
     transform="matrix(0.34015541,0,0,0.34015541,66.120874,450.41632)"
     id="g119"
     style="vector-effect:non-scaling-stroke;fill:none;stroke:#000000;stroke-width:2.93983;stroke-linecap:round;stroke-linejoin:round;stroke-dasharray:none;-inkscape-stroke:hairline">
    <path
       d="M 346,662 V 0 M 126,662 h 441"
       style="vector-effect:non-scaling-stroke;stroke-width:122.82;stroke-dasharray:none;-inkscape-stroke:hairline"
       transform="scale(0.0239361,-0.0239361)"
       id="path117" />
    <path
       d="M 220,662 V 0 m 0,662 h 284 l 94,-32 32,-32 32,-62 V 472 L 630,410 598,378 504,346 H 220 M 441,346 662,0"
       style="vector-effect:non-scaling-stroke;stroke-width:122.82;stroke-dasharray:none;-inkscape-stroke:hairline"
       transform="matrix(0.0239361,0,0,-0.0239361,12.0638,0)"
       id="path118" />
    <path
       d="m 346,662 -94,-32 -32,-63 v -63 l 32,-63 63,-31 126,-32 95,-32 62,-62 32,-64 V 126 L 598,63 567,31.5 472,0 H 346 L 252,31.5 220,63 189,126 v 94 l 31,64 64,62 94,32 126,32 63,31 31,63 v 63 l -31,63 -95,32 H 346"
       style="vector-effect:non-scaling-stroke;stroke-width:122.82;stroke-dasharray:none;-inkscape-stroke:hairline"
       transform="matrix(0.0239361,0,0,-0.0239361,27.9095,0)"
       id="path119" />
  </g>
  <g
     transform="matrix(0.34015541,0,0,0.34015541,95.735487,450.42166)"
     id="g123"
     style="vector-effect:non-scaling-stroke;fill:none;stroke:#000000;stroke-width:2.93983;stroke-linecap:round;stroke-linejoin:round;stroke-dasharray:none;-inkscape-stroke:hairline">
    <path
       d="M 346,662 V 0 M 126,662 h 441"
       style="vector-effect:non-scaling-stroke;stroke-width:122.82;stroke-dasharray:none;-inkscape-stroke:hairline"
       transform="scale(0.0239361,-0.0239361)"
       id="path120" />
    <path
       d="M 220,662 V 0 m 0,662 h 284 l 94,-32 32,-32 32,-62 V 472 L 630,410 598,378 504,346 H 220 M 441,346 662,0"
       style="vector-effect:non-scaling-stroke;stroke-width:122.82;stroke-dasharray:none;-inkscape-stroke:hairline"
       transform="matrix(0.0239361,0,0,-0.0239361,12.0638,0)"
       id="path121" />
    <path
       d="m 284,536 62,31 95,95 V 0"
       style="vector-effect:non-scaling-stroke;stroke-width:122.82;stroke-dasharray:none;-inkscape-stroke:hairline"
       transform="matrix(0.0239361,0,0,-0.0239361,27.9095,0)"
       id="path122" />
    <path
       d="M 378,662 284,630 220,536 189,378 V 284 L 220,126 284,31.5 378,0 h 63 l 95,31.5 62,94.5 32,158 v 94 l -32,158 -62,94 -95,32 h -63"
       style="vector-effect:non-scaling-stroke;stroke-width:122.82;stroke-dasharray:none;-inkscape-stroke:hairline"
       transform="matrix(0.0239361,0,0,-0.0239361,42.9892,0)"
       id="path123" />
  </g>
</svg>
