<?xml version="1.0" encoding="UTF-8" standalone="no"?>
<svg
   viewBox="0 0 536.04999 639.74001"
   width="141.8299mm"
   height="169.26454mm"
   version="1.1"
   id="svg67"
   sodipodi:docname="L3D 6x6x6 Side Panel.svg"
   inkscape:version="1.4-beta3 (01c8a1ca, 2024-08-28)"
   xml:space="preserve"
   xmlns:inkscape="http://www.inkscape.org/namespaces/inkscape"
   xmlns:sodipodi="http://sodipodi.sourceforge.net/DTD/sodipodi-0.dtd"
   xmlns="http://www.w3.org/2000/svg"
   xmlns:svg="http://www.w3.org/2000/svg"><sodipodi:namedview
     id="namedview67"
     pagecolor="#ffffff"
     bordercolor="#666666"
     borderopacity="1.0"
     inkscape:showpageshadow="2"
     inkscape:pageopacity="0.0"
     inkscape:pagecheckerboard="0"
     inkscape:deskcolor="#d1d1d1"
     showgrid="false"
     inkscape:zoom="0.70710678"
     inkscape:cx="240.41631"
     inkscape:cy="489.31789"
     inkscape:window-width="2560"
     inkscape:window-height="1387"
     inkscape:window-x="750"
     inkscape:window-y="25"
     inkscape:window-maximized="0"
     inkscape:current-layer="g68"
     inkscape:document-units="mm" /><desc
     id="desc1">L3D 6x6x6 Side Panel.dxf - scale = 1.000000, origin = (0.000000, 0.000000), method = manual</desc><defs
     id="defs4"><marker
       id="DistanceX"
       orient="auto"
       refX="0"
       refY="0"
       style="overflow:visible"><path
         d="M 3,-3 -3,3 M 0,-5 V 5"
         style="stroke:#000000;stroke-width:0.5"
         id="path1" /></marker><pattern
       id="Hatch"
       patternUnits="userSpaceOnUse"
       width="8"
       height="8"
       x="0"
       y="0"><path
         d="M8 4 l-4,4"
         stroke="#000000"
         stroke-width="0.25"
         linecap="square"
         id="path2" /><path
         d="M6 2 l-4,4"
         stroke="#000000"
         stroke-width="0.25"
         linecap="square"
         id="path3" /><path
         d="M4 0 l-4,4"
         stroke="#000000"
         stroke-width="0.25"
         linecap="square"
         id="path4" /></pattern><symbol
       id="*MODEL_SPACE" /><symbol
       id="*PAPER_SPACE" /><marker
       id="DistanceX-5"
       orient="auto"
       refX="0"
       refY="0"
       style="overflow:visible"><path
         d="M 3,-3 -3,3 M 0,-5 V 5"
         style="stroke:#000000;stroke-width:0.5"
         id="path1-3" /></marker><pattern
       id="Hatch-5"
       patternUnits="userSpaceOnUse"
       width="8"
       height="8"
       x="0"
       y="0"><path
         d="M8 4 l-4,4"
         stroke="#000000"
         stroke-width="0.25"
         linecap="square"
         id="path2-4" /><path
         d="M6 2 l-4,4"
         stroke="#000000"
         stroke-width="0.25"
         linecap="square"
         id="path3-3" /><path
         d="M4 0 l-4,4"
         stroke="#000000"
         stroke-width="0.25"
         linecap="square"
         id="path4-6" /></pattern><symbol
       id="*MODEL_SPACE-5" /><symbol
       id="*PAPER_SPACE-9" /></defs><g
     inkscape:groupmode="layer"
     inkscape:label="0"
     id="g67"
     transform="translate(115.36928,-1293.925)"><g
       inkscape:label="0"
       id="g68"
       transform="translate(141.26772,192.05504)"><path
         style="fill:none;stroke:#000000"
         d="m -256.137,1115.72 13.35,-13.35"
         id="path5" /><path
         style="fill:none;stroke:#000000"
         d="M -242.787,1102.37 H 257.879"
         id="path6" /><path
         style="fill:none;stroke:#000000"
         d="m 257.879,1102.37 v 41.2"
         id="path7" /><path
         style="fill:none;stroke:#000000"
         d="M 257.879,1143.57 H 235.202"
         id="path8" /><path
         style="fill:none;stroke:#000000"
         d="m 235.202,1143.57 v 12.47"
         id="path9" /><path
         style="fill:none;stroke:#000000"
         d="m 235.202,1156.04 h 22.677"
         id="path10" /><path
         style="fill:none;stroke:#000000"
         d="m 257.879,1156.04 v 109.61"
         id="path11" /><path
         style="fill:none;stroke:#000000"
         d="m 257.879,1265.65 h 9.071"
         id="path12" /><path
         style="fill:none;stroke:#000000"
         d="m 266.95,1265.65 v -5.67"
         id="path13" /><path
         style="fill:none;stroke:#000000"
         d="m 268.839,1258.09 h 2.746"
         id="path14" /><path
         style="fill:none;stroke:#000000"
         d="m 271.585,1258.09 7.27,7.27"
         id="path15" /><path
         style="fill:none;stroke:#000000"
         d="m 278.855,1265.36 v 25.15"
         id="path16" /><path
         style="fill:none;stroke:#000000"
         d="m 278.855,1290.51 -7.748,8.02"
         id="path17" /><path
         style="fill:none;stroke:#000000"
         d="M 271.107,1298.53 H 257.879"
         id="path18" /><path
         style="fill:none;stroke:#000000"
         d="M 257.879,1298.53 V 1473.9"
         id="path19" /><path
         style="fill:none;stroke:#000000"
         d="M 257.879,1651.92 H 235.202"
         id="path20" /><path
         style="fill:none;stroke:#000000"
         d="m 235.202,1651.92 v 12.47"
         id="path21" /><path
         style="fill:none;stroke:#000000"
         d="m 235.202,1664.39 h 22.677"
         id="path22" /><path
         style="fill:none;stroke:#000000;stroke-width:0.978375"
         d="M 257.879,1713.6188 V 1741.11"
         id="path23" /><path
         style="fill:none;stroke:#000000"
         d="M 257.879,1741.11 H 220.083"
         id="path24" /><path
         style="fill:none;stroke:#000000"
         d="m 220.083,1741.11 -7.559,-7.55"
         id="path25" /><path
         style="fill:none;stroke:#000000"
         d="m 212.524,1733.56 h -400.63"
         id="path26" /><path
         style="fill:none;stroke:#000000"
         d="m -188.106,1733.56 -12.094,7.55"
         id="path27" /><path
         style="fill:none;stroke:#000000"
         d="m -200.2,1741.11 h -45.354"
         id="path28" /><path
         style="fill:none;stroke:#000000"
         d="m -245.554,1741.11 -10.583,-10.58"
         id="path29" /><path
         style="fill:none;stroke:#000000"
         d="m -256.137,1730.53 v -66.14"
         id="path30" /><path
         style="fill:none;stroke:#000000"
         d="m -256.137,1664.39 h 45.354"
         id="path31" /><path
         style="fill:none;stroke:#000000"
         d="m -210.783,1664.39 v -12.47"
         id="path32" /><path
         style="fill:none;stroke:#000000"
         d="m -210.783,1651.92 h -45.354"
         id="path33" /><path
         style="fill:none;stroke:#000000"
         d="M -256.137,1651.92 V 1155.67"
         id="path34" /><path
         style="fill:none;stroke:#000000"
         d="m -256.137,1155.67 h 45.354"
         id="path35" /><path
         style="fill:none;stroke:#000000"
         d="m -210.783,1155.67 v -12.48"
         id="path36" /><path
         style="fill:none;stroke:#000000"
         d="m -210.783,1143.19 h -45.354"
         id="path37" /><path
         style="fill:none;stroke:#000000"
         d="m -256.137,1115.72 v 27.47"
         id="path38" /><path
         style="fill:none;stroke:#000000"
         d="m 257.879,1506.78 v 145.14"
         id="path40" /><path
         style="fill:none;stroke:#000000"
         d="m 257.879,1664.39 v 15.12"
         id="path41" /><path
         style="fill:none;stroke:#000000"
         d="m 266.95,1259.98 1.889,-1.89"
         id="path42" /><path
         style="fill:none;stroke:#000000"
         d="m 271.585,1466.34 7.27,7.27"
         id="path43" /><path
         style="fill:none;stroke:#000000"
         d="m 266.95,1473.9 v -5.67"
         id="path44" /><path
         style="fill:none;stroke:#000000"
         d="m 278.855,1498.76 -7.748,8.02"
         id="path45" /><path
         style="fill:none;stroke:#000000"
         d="m 266.95,1468.23 1.889,-1.89"
         id="path46" /><path
         style="fill:none;stroke:#000000"
         d="m 268.839,1466.34 h 2.746"
         id="path47" /><path
         style="fill:none;stroke:#000000"
         d="M 271.107,1506.78 H 257.879"
         id="path48" /><path
         style="fill:none;stroke:#000000"
         d="m 257.879,1473.9 h 9.071"
         id="path49" /><path
         style="fill:none;stroke:#000000"
         d="m 278.855,1473.61 v 25.15"
         id="path50" /><path
         style="fill:none;stroke:#000000"
         d="m 272.062,1673.46 6.851,6.85"
         id="path51" /><path
         style="fill:none;stroke:#000000"
         d="m 266.95,1681.02 v -5.67"
         id="path52" /><path
         style="fill:none;stroke:#000000"
         d="m 278.913,1705.62 -7.971,8.28"
         id="path53" /><path
         style="fill:none;stroke:#000000"
         d="m 266.95,1675.35 1.889,-1.89"
         id="path54" /><path
         style="fill:none;stroke:#000000"
         d="m 268.839,1673.46 h 3.223"
         id="path55" /><path
         style="fill:none;stroke:#000000"
         d="M 270.942,1713.9 H 257.714"
         id="path56" /><path
         style="fill:none;stroke:#000000"
         d="m 257.879,1681.02 h 9.071"
         id="path57" /><path
         style="fill:none;stroke:#000000"
         d="m 278.913,1680.31 v 25.31"
         id="path58" /><path
         style="fill:none;stroke:#000000"
         d="m 257.879,1679.51 v 1.51"
         id="path59" /><path
         d="m -234.21577,1680.0749 v 42.3307 h -8.69291 v -42.3307 z"
         style="fill:none;stroke:#000000"
         id="path61" /><path
         d="m -242.90868,1515.2875 v -42.3307 h 8.69291 v 42.3307 z"
         style="fill:none;stroke:#000000"
         id="path62" /><path
         d="m -242.90868,1264.7048 h 8.69291 v 42.3307 h -8.69291 z"
         style="fill:none;stroke:#000000"
         id="path63" /><path
         d="m -132.54647,1149.6182 a 5.85827,5.85827 0 0 0 -11.71654,0 5.85827,5.85827 0 0 0 11.71654,0 z"
         style="fill:none;stroke:#000000"
         id="path64" /><path
         d="m 168.68187,1149.7458 a 5.858268,5.858268 0 0 0 -11.71653,0 5.858268,5.858268 0 0 0 11.71653,0 z"
         style="fill:none;stroke:#000000"
         id="path65" /></g></g></svg>
